<?xml version="1.0" standalone="no"?>
<!DOCTYPE svg PUBLIC "-//W3C//DTD SVG 20010904//EN"
 "http://www.w3.org/TR/2001/REC-SVG-20010904/DTD/svg10.dtd">
<svg version="1.0" xmlns="http://www.w3.org/2000/svg"
 width="1600.000000pt" height="1600.000000pt" viewBox="0 0 1600.000000 1600.000000"
 preserveAspectRatio="xMidYMid meet">

<g transform="translate(0.000000,1600.000000) scale(0.100000,-0.100000)"
fill="#000000" stroke="none">
<path d="M7240 15420 c0 -14 -7 -20 -22 -20 -24 0 -63 -20 -40 -20 6 0 12 -4
12 -10 0 -5 -3 -9 -7 -9 -24 4 -33 -4 -33 -26 0 -24 -2 -25 -65 -25 -57 0 -65
-2 -65 -19 0 -15 -10 -20 -45 -25 -36 -6 -45 -11 -45 -27 0 -14 -7 -19 -25
-19 -20 0 -25 -5 -25 -25 0 -23 -4 -25 -45 -25 -38 0 -45 -3 -45 -20 0 -17 -7
-20 -45 -20 -42 0 -45 -2 -45 -26 0 -18 -5 -25 -17 -23 -52 5 -73 -1 -73 -21
0 -13 -7 -20 -20 -20 -13 0 -20 -7 -20 -20 0 -17 -7 -20 -45 -20 -41 0 -45 -2
-45 -25 0 -23 -4 -25 -45 -25 -38 0 -45 -3 -45 -19 0 -15 -10 -21 -40 -26 -30
-5 -40 -11 -40 -26 0 -14 -7 -19 -25 -19 -18 0 -25 -5 -25 -20 0 -17 -7 -20
-50 -20 -47 0 -50 -2 -50 -25 0 -24 -2 -25 -65 -25 -58 0 -65 -2 -65 -20 0
-17 -7 -20 -45 -20 -38 0 -45 3 -45 20 0 17 -7 20 -45 20 -38 0 -45 -3 -45
-20 0 -19 -7 -20 -106 -20 -97 0 -106 -2 -111 -20 -6 -23 -43 -27 -43 -5 0 9
-9 15 -25 15 -18 0 -25 -5 -25 -20 0 -13 -7 -20 -20 -20 -13 0 -20 -7 -20 -20
0 -13 -7 -20 -19 -20 -16 0 -21 -9 -27 -45 -5 -34 -11 -45 -25 -45 -13 0 -19
-11 -25 -45 -4 -27 -11 -45 -20 -45 -8 0 -14 -15 -16 -42 -2 -36 -7 -44 -25
-46 -20 -3 -23 -9 -23 -48 0 -40 -2 -44 -25 -44 -22 0 -25 -4 -25 -40 0 -33
-3 -40 -20 -40 -15 0 -20 -7 -20 -25 0 -18 -5 -25 -20 -25 -17 0 -20 -7 -20
-45 0 -41 -2 -45 -25 -45 -23 0 -25 -4 -25 -45 l0 -45 -45 0 c-38 0 -45 -3
-45 -20 0 -13 -7 -20 -18 -20 -14 0 -21 -11 -28 -47 -7 -38 -13 -47 -26 -45
-16 3 -18 -9 -18 -133 l0 -135 25 0 c20 0 25 -5 25 -25 0 -22 4 -25 40 -25 33
0 40 -3 40 -20 0 -17 7 -20 43 -20 72 0 86 -8 93 -51 l7 -39 108 0 109 0 0 64
0 64 45 6 c36 6 45 11 45 27 0 12 7 19 19 19 16 0 21 9 27 45 l6 45 44 0 c37
0 44 3 44 19 0 15 10 21 40 26 l41 7 -22 19 c-17 15 -18 19 -6 19 8 0 18 -6
20 -12 4 -10 6 -10 6 0 1 8 17 12 46 12 38 0 45 3 45 20 0 18 7 20 70 20 63 0
70 2 70 20 0 13 7 20 20 20 13 0 20 -7 20 -20 0 -15 7 -20 25 -20 19 0 25 5
25 23 0 20 5 23 43 22 36 0 42 -3 45 -22 3 -21 9 -23 68 -23 57 0 64 -2 64
-20 0 -15 7 -20 25 -20 18 0 25 5 25 20 0 13 7 20 20 20 13 0 20 -7 20 -20 0
-15 7 -20 25 -20 20 0 25 -5 25 -25 0 -22 4 -25 40 -25 33 0 40 -3 40 -20 0
-15 7 -20 25 -20 20 0 25 -5 25 -25 0 -18 5 -25 20 -25 13 0 20 -7 20 -20 0
-13 7 -20 19 -20 13 0 21 -8 23 -22 2 -15 11 -24 25 -26 14 -2 23 -11 25 -25
2 -14 11 -23 26 -25 18 -3 22 -10 22 -43 0 -32 3 -39 20 -39 17 0 20 -7 20
-44 0 -39 3 -45 23 -48 21 -3 22 -8 25 -90 3 -80 5 -88 22 -88 13 0 20 -7 20
-20 0 -13 -7 -20 -20 -20 -18 0 -20 -7 -20 -70 0 -63 2 -70 20 -70 13 0 20 -7
20 -20 0 -13 -7 -20 -20 -20 -17 0 -20 -7 -20 -45 0 -38 3 -45 20 -45 13 0 20
-7 20 -20 0 -18 7 -20 65 -20 36 0 66 -4 66 -10 1 -5 3 -14 4 -20 1 -5 3 -23
4 -40 1 -29 3 -30 47 -30 36 0 45 -3 41 -14 -4 -11 7 -16 44 -21 38 -5 49 -11
49 -25 0 -13 10 -20 40 -25 30 -5 40 -11 40 -26 0 -17 8 -19 70 -19 63 0 70
-2 70 -19 0 -16 8 -20 43 -23 35 -3 43 -7 45 -26 4 -30 36 -25 40 6 2 14 10
22 23 22 16 0 19 -7 19 -45 l0 -45 50 0 c47 0 50 -2 50 -25 0 -18 5 -25 20
-25 13 0 20 -7 20 -19 0 -17 8 -20 48 -23 37 -2 46 -6 44 -19 -3 -18 34 -29
94 -29 26 0 33 -4 36 -22 2 -19 10 -24 46 -26 28 -2 42 -8 42 -18 0 -10 12
-14 45 -14 41 0 45 -2 45 -25 0 -18 5 -25 20 -25 13 0 20 -7 20 -20 0 -15 7
-20 25 -20 18 0 25 5 25 20 0 15 7 20 25 20 20 0 25 -5 25 -25 0 -18 5 -25 20
-25 15 0 20 7 20 25 0 18 5 25 20 25 15 0 20 7 20 25 0 20 5 25 25 25 18 0 25
5 25 20 0 17 7 20 39 20 39 0 40 0 47 45 l6 45 44 0 c37 0 44 3 44 20 0 18 7
20 65 20 63 0 65 1 65 25 l0 25 115 0 c108 0 115 1 115 20 0 19 7 20 110 20
l110 0 0 -45 0 -45 45 0 c41 0 45 2 45 25 0 18 5 25 20 25 15 0 20 -7 20 -25
0 -20 5 -25 25 -25 18 0 25 -5 25 -20 0 -17 7 -20 40 -20 l40 0 0 -45 c0 -41
2 -45 25 -45 18 0 25 -5 25 -19 0 -15 10 -20 45 -25 l45 -7 0 -63 0 -63 43 -9
42 -9 3 -103 c3 -101 3 -102 27 -102 23 0 25 -4 25 -50 0 -38 4 -50 15 -50 8
0 15 -9 15 -20 0 -11 -7 -20 -15 -20 -8 0 -15 -9 -15 -20 0 -11 7 -20 15 -20
9 0 15 -9 15 -25 0 -16 -6 -25 -15 -25 -12 0 -15 -13 -15 -59 0 -64 -6 -91
-22 -91 -5 0 -6 5 -2 11 4 7 1 10 -7 7 -11 -3 -15 -31 -17 -111 l-3 -107 46 0
c41 0 45 -2 45 -25 0 -18 5 -25 20 -25 13 0 20 -7 20 -20 0 -17 7 -20 43 -20
61 0 87 -9 87 -31 0 -18 10 -19 140 -19 l140 0 0 25 c0 18 5 25 20 25 17 0 20
7 20 45 0 37 3 45 19 45 10 0 21 9 24 20 3 12 14 20 26 20 18 0 21 6 21 44 0
39 -3 45 -22 48 -29 4 -32 26 -23 135 6 73 9 83 26 83 14 0 19 7 19 25 0 18 5
25 20 25 17 0 20 7 20 45 0 38 3 45 20 45 13 0 20 7 21 20 1 11 3 25 4 30 1 6
3 17 4 25 0 8 10 15 21 15 17 0 20 7 20 45 0 41 2 45 25 45 24 0 25 3 25 60 0
53 2 60 20 60 17 0 20 7 20 50 0 47 2 50 25 50 20 0 25 5 25 25 0 18 5 25 20
25 13 0 20 7 20 20 0 13 7 20 20 20 15 0 20 7 20 25 0 16 -6 25 -15 25 -8 0
-15 5 -15 10 0 6 5 10 11 10 5 0 7 5 4 10 -3 6 -1 10 4 10 6 0 11 9 11 20 0
15 7 20 25 20 23 0 25 4 25 45 0 37 3 45 19 45 15 0 20 10 25 45 6 36 11 45
27 45 16 0 19 7 19 46 0 37 4 47 20 51 17 5 20 14 20 63 0 53 2 59 23 62 18 2
23 10 25 46 3 34 7 42 23 42 14 0 19 7 19 25 0 18 5 25 19 25 16 0 20 8 23 43
2 35 7 43 26 45 19 3 22 9 22 48 0 40 2 44 25 44 23 0 25 3 25 49 0 44 2 49
20 44 18 -5 20 0 22 63 1 68 1 177 -1 222 -1 15 -7 22 -21 22 -18 0 -20 7 -20
65 l0 65 -65 0 -65 0 0 45 0 45 -70 0 c-68 0 -70 1 -70 25 0 24 -2 25 -70 25
l-70 0 0 40 0 40 -65 0 -65 0 0 30 c0 23 -4 30 -20 30 -11 0 -20 7 -20 15 0 9
-9 15 -25 15 -16 0 -25 -6 -25 -15 0 -8 -9 -15 -20 -15 -14 0 -20 7 -21 25 -1
14 -2 31 -3 38 -1 8 -24 13 -68 15 l-68 3 0 44 0 45 -86 0 c-77 0 -86 2 -91
20 -4 16 -14 20 -44 20 -35 0 -39 3 -39 25 0 20 -5 25 -25 25 -18 0 -25 5 -25
20 0 18 -7 20 -65 20 -58 0 -65 2 -65 20 0 15 -7 20 -25 20 -20 0 -25 5 -25
25 0 23 -4 25 -40 25 -36 0 -40 3 -40 25 0 24 -2 25 -70 25 l-70 0 0 40 0 40
-70 0 c-68 0 -70 1 -70 25 0 24 -2 25 -65 25 -63 0 -65 1 -65 25 0 18 -5 25
-20 25 -13 0 -20 7 -20 20 0 18 -7 20 -70 20 -63 0 -70 2 -70 20 0 13 -7 20
-20 20 -15 0 -20 7 -20 25 0 20 -5 25 -25 25 -20 0 -25 5 -25 25 0 25 -1 25
-90 25 -83 0 -90 1 -90 20 0 13 -7 20 -20 20 -13 0 -20 7 -20 20 0 17 -7 20
-45 20 -25 0 -45 4 -45 9 0 5 -10 6 -22 3 -22 -5 -22 -5 -5 12 21 21 23 33 2
16 -10 -9 -15 -9 -15 -1 0 6 -18 11 -45 11 -38 0 -45 3 -45 20 0 15 -7 20 -25
20 -18 0 -25 5 -25 19 0 13 -10 20 -31 25 -17 3 -35 3 -40 0 -5 -3 -10 0 -10
5 -1 6 -2 17 -3 24 -1 7 -20 13 -48 15 -43 3 -48 5 -48 28 0 17 -5 24 -20 24
-13 0 -20 7 -20 20 0 19 -7 20 -90 20 -89 0 -90 0 -90 25 0 20 -5 25 -25 25
-18 0 -25 5 -25 20 0 17 -7 20 -40 20 -33 0 -40 3 -40 20 0 18 -7 20 -70 20
-68 0 -70 1 -70 25 0 23 -4 25 -45 25 -39 0 -45 3 -45 21 0 16 -5 20 -20 16
-17 -4 -20 0 -20 24 l0 29 -66 0 c-57 0 -67 3 -71 20 -5 17 -14 20 -69 20 -62
0 -64 1 -64 26 0 24 -3 26 -33 22 -27 -3 -33 0 -35 17 -1 16 1 17 9 5 9 -12
10 -12 7 -1 -7 24 -28 25 -28 2 0 -18 -6 -21 -50 -21 -43 0 -50 3 -50 20 0 13
-7 20 -20 20 -13 0 -20 -7 -20 -20z m130 -310 c0 -17 7 -20 45 -20 41 0 45 -2
45 -25 0 -23 4 -25 45 -25 38 0 45 -3 45 -20 0 -17 7 -20 49 -20 55 0 81 -7
81 -22 0 -7 -5 -6 -14 1 -10 9 -15 8 -19 -3 -6 -14 37 -26 95 -26 20 0 27 -6
30 -22 2 -19 10 -24 46 -26 34 -3 42 -7 42 -23 0 -14 7 -19 25 -19 18 0 25 -5
25 -20 0 -17 7 -20 45 -20 41 0 45 -2 45 -24 0 -18 -6 -26 -22 -28 -18 -2 -22
-10 -22 -43 -1 -34 -5 -41 -23 -43 -20 -3 -23 -9 -23 -48 0 -40 -2 -44 -25
-44 -24 0 -25 -2 -25 -65 0 -58 -2 -65 -20 -65 -17 0 -20 -7 -20 -39 0 -33 -4
-40 -22 -43 -20 -3 -23 -10 -26 -50 -3 -40 -6 -48 -23 -48 -13 0 -19 -7 -19
-21 0 -12 -8 -23 -20 -26 -20 -5 -23 -16 -24 -88 -1 -34 -5 -41 -23 -43 -15
-2 -23 -10 -23 -23 0 -12 -7 -19 -20 -19 -16 0 -20 -7 -21 -32 -1 -18 -1 -39
0 -45 1 -10 -23 -13 -94 -13 -95 0 -95 0 -95 25 0 24 -2 25 -39 19 -38 -6 -40
-5 -43 22 -2 24 -8 29 -33 31 -16 0 -36 2 -42 2 -7 1 -13 8 -13 16 0 11 -12
15 -45 15 -41 0 -45 2 -45 25 0 20 -5 25 -25 25 -18 0 -25 5 -25 20 0 14 -7
20 -22 22 -13 0 -27 2 -33 3 -5 2 -25 3 -42 4 -21 1 -33 6 -33 15 0 9 -17 16
-45 20 -36 6 -45 11 -45 27 0 16 -7 19 -45 19 -41 0 -45 2 -45 25 0 23 -4 25
-45 25 -38 0 -45 3 -45 19 0 16 -9 21 -45 27 -27 4 -45 11 -45 20 0 8 -15 14
-42 16 -36 2 -44 7 -46 26 -3 19 -9 22 -52 22 -43 0 -48 2 -43 20 4 15 0 20
-16 20 -19 0 -21 6 -21 51 0 32 4 48 10 44 21 -13 70 6 70 26 0 14 7 19 25 19
20 0 25 5 25 25 0 23 4 25 44 25 43 0 44 0 50 40 l6 40 65 0 c63 0 65 1 65 25
0 23 4 25 45 25 38 0 45 3 45 20 0 13 7 20 20 20 15 0 20 7 20 25 0 23 3 25
51 25 40 0 50 3 46 14 -6 15 20 26 61 26 17 0 22 6 22 25 0 18 5 25 20 25 13
0 20 7 20 20 0 18 7 20 64 20 59 0 65 2 68 23 3 19 10 22 51 25 39 3 47 6 47
23 0 12 7 19 20 19 13 0 20 -7 20 -20z m-513 -2112 c-3 -8 -6 -5 -6 6 -1 11 2
17 5 13 3 -3 4 -12 1 -19z"/>
<path d="M6997 14933 c-4 -3 -7 -11 -7 -17 0 -6 5 -5 12 2 6 6 9 14 7 17 -3 3
-9 2 -12 -2z"/>
<path d="M6005 14760 c-3 -5 -1 -10 4 -10 6 0 11 5 11 10 0 6 -2 10 -4 10 -3
0 -8 -4 -11 -10z"/>
<path d="M5900 13590 c0 -15 -7 -20 -25 -20 -18 0 -25 -5 -25 -19 0 -10 -9
-21 -20 -24 -12 -3 -20 -14 -20 -26 0 -18 -6 -21 -41 -21 -32 0 -42 -4 -46
-20 -3 -11 -14 -20 -24 -20 -14 0 -19 -7 -19 -25 0 -20 -5 -25 -25 -25 -21 0
-25 -5 -26 -32 -1 -18 -1 -39 0 -45 1 -7 -7 -13 -17 -13 -16 0 -21 -10 -26
-45 -6 -36 -11 -45 -27 -45 -18 0 -19 -8 -19 -155 l0 -155 25 0 c25 0 25 -1
25 -90 l0 -90 45 0 45 0 0 -45 c0 -38 3 -45 20 -45 13 0 20 -7 20 -19 0 -15
10 -20 44 -25 42 -7 45 -9 51 -45 l6 -38 77 -2 c42 -2 83 -3 90 -3 6 -1 11 -8
10 -16 -2 -8 3 -16 10 -18 7 -1 8 0 3 2 -6 3 -7 12 -4 20 4 10 22 14 64 14 57
0 59 -1 59 -26 0 -22 3 -25 23 -20 12 3 50 6 85 6 55 0 62 2 62 20 0 13 7 20
19 20 10 0 21 9 24 20 3 13 14 20 31 20 18 0 24 4 20 14 -3 8 -1 17 5 21 6 3
9 0 5 -8 -11 -29 14 -26 26 2 7 18 17 28 25 25 10 -4 12 1 8 15 -5 18 -1 21
25 21 29 0 31 3 38 45 5 35 10 45 25 45 12 0 19 7 19 20 0 13 7 20 20 20 17 0
19 8 22 68 3 57 6 67 21 66 10 -1 17 5 17 15 0 9 3 40 6 69 6 51 6 52 -20 52
-21 0 -26 5 -26 25 0 18 5 25 20 25 13 0 20 7 20 20 0 13 -7 20 -20 20 -18 0
-20 7 -20 85 0 78 -2 85 -20 85 -15 0 -20 7 -20 25 0 20 -5 25 -25 25 -23 0
-25 3 -25 50 0 47 -2 50 -25 50 -16 0 -25 6 -25 15 0 9 -10 15 -22 16 -13 1
-30 2 -38 3 -8 0 -16 13 -18 29 -2 19 -9 27 -24 27 -11 0 -22 8 -25 20 -4 16
-14 20 -48 20 -35 0 -43 3 -41 18 1 14 -8 18 -46 20 -43 3 -48 1 -48 -17 0
-12 -7 -21 -15 -21 -8 0 -15 9 -15 20 0 18 -7 20 -65 20 -58 0 -65 -2 -65 -20
0 -16 -7 -20 -30 -20 -23 0 -30 4 -30 20 0 13 -7 20 -20 20 -13 0 -20 -7 -20
-20z m360 -355 c0 -20 5 -25 25 -25 23 0 25 -4 25 -40 0 -29 4 -40 15 -40 17
0 20 -40 16 -187 -1 -36 -4 -43 -21 -43 -15 0 -20 -7 -20 -25 0 -18 -5 -25
-20 -25 -13 0 -20 -7 -20 -20 0 -18 -7 -20 -66 -20 -56 0 -67 -3 -71 -19 -3
-11 -17 -21 -35 -25 -50 -10 -58 -7 -58 19 0 23 -4 25 -40 25 -33 0 -40 3 -40
20 0 15 -7 20 -25 20 -23 0 -25 4 -25 44 0 39 -3 45 -22 48 -22 3 -23 8 -26
95 -3 89 -2 92 20 95 13 2 24 9 24 16 1 6 2 23 3 37 1 18 7 25 21 25 15 0 20
7 20 25 l0 25 160 0 160 0 0 -25z m-370 -712 c0 -15 -2 -16 -10 -3 -9 13 -11
13 -20 0 -5 -8 -10 -10 -10 -4 0 14 10 24 27 24 7 0 13 -8 13 -17z"/>
<path d="M6374 13562 c3 -5 0 -13 -6 -15 -9 -4 -10 -6 -1 -6 17 -1 25 16 12
25 -7 4 -9 3 -5 -4z"/>
<path d="M11130 12586 l0 -46 40 0 c33 0 40 -3 40 -20 0 -16 6 -20 30 -18 23
2 29 6 24 18 -4 8 -6 23 -6 33 1 15 -2 16 -14 7 -11 -10 -14 -9 -14 4 0 10 -4
15 -9 11 -5 -3 -11 7 -13 22 -3 24 -8 28 -40 31 l-38 3 0 -45z m70 30 c0 -3
-4 -8 -10 -11 -5 -3 -10 -1 -10 4 0 6 5 11 10 11 6 0 10 -2 10 -4z"/>
<path d="M11270 12531 c0 -6 4 -12 8 -15 5 -3 9 1 9 9 0 8 -4 15 -9 15 -4 0
-8 -4 -8 -9z"/>
<path d="M6661 12487 c-1 -27 25 -49 51 -44 23 4 23 4 1 6 -17 1 -21 6 -17 26
2 14 0 25 -6 25 -5 0 -10 -8 -11 -17 0 -15 -2 -15 -9 2 -8 18 -9 18 -9 2z"/>
<path d="M5950 12481 c0 -6 4 -13 10 -16 6 -3 7 1 4 9 -7 18 -14 21 -14 7z"/>
<path d="M6611 12418 c0 -18 3 -27 6 -20 2 6 10 9 16 5 7 -4 6 1 -2 10 -8 10
-11 20 -7 24 3 3 6 1 6 -5 0 -7 14 -12 33 -11 21 1 25 3 12 6 -11 3 -24 9 -29
14 -21 19 -36 9 -35 -23z"/>
<path d="M6753 12443 c9 -3 17 -12 17 -21 0 -14 -2 -14 -9 -3 -6 10 -10 10
-13 1 -2 -7 -24 -13 -51 -13 -26 -1 -47 -3 -47 -5 0 -1 10 -7 23 -12 15 -6 17
-9 6 -9 -9 -1 -20 -9 -23 -18 -6 -15 -8 -15 -16 -3 -7 11 -10 8 -11 -15 0 -16
-3 -23 -6 -15 -2 8 -7 22 -9 30 -5 13 -6 13 -15 0 -8 -11 -10 -8 -6 13 2 15 1
27 -4 27 -4 0 -10 -17 -14 -39 -5 -32 -10 -38 -30 -38 -14 0 -25 7 -28 18 -3
11 -13 19 -22 19 -15 0 -15 -1 -1 -16 9 -8 13 -20 10 -26 -4 -6 -10 -5 -15 3
-6 10 -9 4 -9 -18 0 -24 -5 -33 -17 -34 -13 0 -14 -2 -4 -6 27 -11 59 -45 54
-58 -3 -9 5 -15 24 -17 22 -2 28 -8 26 -25 -2 -18 4 -22 37 -28 22 -4 40 -12
40 -20 0 -8 23 -14 72 -17 50 -4 75 -10 83 -22 7 -8 30 -19 51 -24 24 -5 39
-14 39 -22 0 -10 13 -16 38 -18 30 -3 40 -9 47 -28 7 -18 17 -24 41 -24 19 0
43 -10 61 -25 16 -14 40 -25 54 -25 13 0 24 -6 24 -13 0 -7 19 -17 43 -23 31
-6 42 -14 41 -26 -2 -15 7 -18 47 -18 27 0 48 -3 48 -7 -6 -37 2 -43 56 -43
48 0 57 -3 71 -26 11 -17 24 -24 36 -21 10 3 20 1 23 -4 3 -4 12 -6 19 -3 8 3
17 0 21 -5 3 -6 11 -8 17 -5 6 4 14 1 18 -6 6 -9 95 -26 163 -30 4 0 7 -6 7
-13 0 -9 12 -14 31 -15 31 -1 68 -22 39 -22 -7 0 -10 -3 -7 -7 6 -5 159 -5
163 0 1 1 4 14 8 30 5 22 3 27 -11 27 -19 1 -75 29 -59 30 17 0 -28 29 -46 30
-16 0 -23 11 -19 33 1 4 -4 7 -11 6 -42 -5 -68 2 -68 19 0 11 -11 24 -24 30
-16 7 -26 22 -30 45 -4 20 -11 37 -16 39 -5 2 -11 26 -14 53 -2 28 -8 49 -13
48 -4 -1 -16 -5 -25 -8 -14 -6 -18 -2 -18 19 0 22 -4 26 -29 26 -24 0 -28 3
-24 20 4 16 0 20 -21 21 -14 1 -30 3 -36 4 -5 1 -13 3 -17 4 -4 0 -2 6 5 13 7
7 12 17 12 23 0 5 -5 3 -10 -5 -6 -10 -10 -11 -10 -2 0 7 -15 12 -39 12 -22 0
-44 6 -51 15 -14 17 0 21 17 4 7 -7 12 -6 16 4 4 11 -5 17 -39 22 -26 3 -43
11 -41 18 1 7 -8 12 -20 11 -13 0 -23 3 -23 8 0 5 -10 8 -22 6 -17 -2 -24 3
-26 19 -3 18 -11 22 -45 25 -35 2 -43 7 -45 26 -2 14 -10 22 -23 22 -12 0 -19
7 -19 20 0 17 -6 20 -37 19 -21 0 -32 -3 -25 -6 20 -8 14 -33 -8 -33 -13 0
-20 7 -20 20 0 17 -7 20 -45 20 -37 0 -45 3 -45 19 0 15 -10 20 -45 25 -35 6
-45 11 -45 26 0 18 -7 19 -72 18 -40 -1 -65 -3 -55 -5z"/>
<path d="M6705 12420 c3 -5 12 -7 20 -3 21 7 19 13 -6 13 -11 0 -18 -4 -14
-10z"/>
<path d="M5231 12393 c-1 -6 -4 -20 -7 -30 -5 -17 -5 -17 6 0 6 10 9 23 6 30
-3 9 -5 9 -5 0z"/>
<path d="M5204 12325 c8 -8 17 -15 20 -15 3 0 3 7 0 15 -4 8 -13 15 -21 15
-12 0 -12 -2 1 -15z"/>
<path d="M6450 12311 c0 -6 5 -13 10 -16 6 -3 10 1 10 9 0 9 -4 16 -10 16 -5
0 -10 -4 -10 -9z"/>
<path d="M10986 12275 c-5 -29 -12 -45 -22 -45 -11 0 -14 -16 -14 -70 0 -68
-1 -70 -25 -70 -18 0 -25 -5 -25 -20 0 -15 7 -20 25 -20 18 0 25 -5 25 -20 0
-17 7 -20 40 -20 36 0 40 -2 40 -25 0 -22 4 -25 39 -25 51 0 71 8 64 26 -3 8
1 15 11 15 9 1 21 3 26 4 6 1 22 3 36 4 22 1 25 3 14 16 -11 13 -8 15 19 17
53 2 56 3 63 13 5 6 8 5 8 -3 0 -10 3 -10 15 2 22 21 18 38 -7 34 -19 -2 -24
2 -26 25 -3 24 -7 27 -43 27 -32 0 -39 3 -39 20 0 14 -7 20 -21 20 -12 0 -23
8 -26 19 -3 11 -13 21 -24 24 -11 3 -19 14 -19 26 0 16 -6 21 -25 21 -20 0
-25 5 -25 25 0 22 -4 25 -39 25 -38 0 -39 -1 -45 -45z"/>
<path d="M8803 12222 c-29 -2 -43 -8 -43 -17 0 -9 -15 -15 -47 -17 -41 -3 -48
-6 -51 -25 -2 -13 -10 -23 -18 -23 -8 0 -14 -10 -14 -25 0 -20 -5 -25 -24 -25
-15 0 -26 -7 -29 -20 -3 -12 -14 -20 -26 -20 -14 0 -21 -6 -21 -20 0 -13 -7
-20 -20 -20 -15 0 -20 -7 -20 -25 0 -18 -5 -25 -20 -25 -16 0 -20 -7 -20 -34
0 -62 -11 -96 -31 -96 -18 0 -19 -11 -19 -180 l0 -180 25 0 c20 0 25 -5 25
-25 0 -15 6 -25 14 -25 10 0 17 -16 21 -45 4 -24 10 -44 14 -43 21 2 31 -4 31
-21 0 -13 8 -21 23 -23 15 -2 21 -9 19 -20 -2 -14 4 -18 28 -18 29 0 30 -2 30
-45 l0 -45 63 0 c61 -1 97 -15 97 -39 0 -7 26 -11 75 -11 68 0 75 -2 75 -20 0
-13 7 -20 20 -20 13 0 20 7 20 20 0 17 7 20 45 20 38 0 45 3 45 20 0 13 7 20
20 21 11 1 29 3 40 4 11 1 43 3 70 4 43 1 50 4 50 21 0 13 7 20 20 20 15 0 20
7 20 25 0 20 5 25 25 25 18 0 25 5 25 20 0 13 7 20 20 20 15 0 20 7 20 25 0
18 5 25 19 25 13 0 21 8 23 23 2 14 11 23 26 25 20 3 22 9 22 68 0 57 2 64 20
64 18 0 20 7 20 65 0 58 -2 65 -20 65 -15 0 -20 7 -20 25 0 18 5 25 20 25 11
0 20 7 20 15 0 8 -9 15 -20 15 -19 0 -20 7 -20 90 0 89 0 90 -25 90 -20 0 -25
5 -25 25 0 18 -5 25 -20 25 -17 0 -20 7 -20 45 0 41 -2 45 -25 45 -18 0 -25 5
-25 20 0 17 -7 20 -40 20 -36 0 -40 3 -40 25 0 20 -5 25 -25 25 -20 0 -25 5
-25 25 0 23 -4 25 -45 25 -38 0 -45 3 -45 19 0 19 -7 20 -132 18 -73 -1 -152
-3 -175 -5z m177 -322 c0 -18 7 -20 65 -20 l65 0 0 -50 c0 -47 2 -50 25 -50
23 0 25 -4 25 -40 0 -33 3 -40 20 -40 19 0 20 -7 20 -89 0 -85 -1 -90 -22 -93
-15 -2 -24 -11 -26 -25 -2 -15 -10 -23 -23 -23 -14 0 -19 -7 -19 -25 0 -24 -2
-25 -69 -25 -59 0 -69 -2 -67 -17 1 -14 -8 -19 -41 -21 -38 -3 -43 -1 -43 17
0 16 -6 21 -25 21 -20 0 -25 5 -25 25 0 23 -4 25 -40 25 -36 0 -40 3 -40 25 0
20 -5 25 -25 25 -24 0 -25 2 -25 65 0 58 -2 65 -20 65 -13 0 -20 7 -20 20 0
13 7 20 20 20 18 0 20 7 20 64 0 59 2 65 23 68 14 2 23 11 25 25 2 16 12 23
43 28 23 4 39 12 39 20 0 10 17 15 53 18 28 2 60 4 70 5 11 1 17 -5 17 -18z"/>
<path d="M5828 11833 c6 -2 12 -9 12 -15 0 -32 47 -46 94 -28 31 11 34 30 6
30 -11 0 -20 5 -20 10 0 6 -24 10 -52 9 -29 0 -47 -3 -40 -6z"/>
<path d="M8090 11809 c-12 -8 -10 -10 10 -5 23 5 23 4 7 -8 -17 -13 -16 -14 3
-19 16 -4 20 0 20 19 0 26 -15 31 -40 13z"/>
<path d="M6088 11803 c6 -2 18 -2 25 0 6 3 1 5 -13 5 -14 0 -19 -2 -12 -5z"/>
<path d="M5940 11770 c-10 -6 -11 -10 -2 -10 6 0 12 -8 12 -17 1 -17 2 -17 15
1 13 17 14 15 21 -19 3 -20 9 -32 13 -27 4 7 15 5 31 -3 19 -11 21 -14 8 -15
-27 0 -22 -20 5 -20 27 0 92 -22 95 -32 1 -5 2 -12 2 -18 0 -5 16 -10 35 -10
24 0 35 -5 35 -14 0 -8 5 -18 12 -22 8 -5 9 -2 5 9 -3 9 -2 19 3 22 4 3 10 -1
12 -7 3 -8 21 -12 51 -11 26 1 47 -3 47 -8 0 -5 23 -9 50 -9 44 0 50 2 50 21
0 17 -5 20 -25 17 -13 -3 -24 -2 -23 1 3 29 -4 41 -27 41 -27 0 -54 35 -32 43
6 2 3 3 -8 1 -13 -2 -28 6 -39 21 -10 14 -34 27 -53 31 -27 5 -32 10 -28 25 7
22 -20 28 -28 7 -4 -10 -6 -10 -6 0 -1 15 -208 17 -231 2z"/>
<path d="M8140 11760 c0 -11 7 -20 15 -20 8 0 15 9 15 20 0 11 -7 20 -15 20
-8 0 -15 -9 -15 -20z"/>
<path d="M10720 11710 c0 -18 -10 -25 -32 -21 -5 0 -8 -14 -8 -31 0 -25 3 -29
10 -18 8 12 10 10 10 -8 0 -13 -4 -20 -10 -17 -5 3 -10 1 -10 -4 0 -19 30 -12
30 7 1 11 6 6 15 -13 7 -16 14 -24 14 -17 1 18 21 15 21 -4 0 -11 9 -14 37
-12 41 3 55 23 23 33 -17 5 -19 10 -9 21 9 11 8 15 -4 20 -9 3 -14 11 -11 19
3 7 -4 15 -16 18 -12 3 -24 15 -27 26 -7 27 -33 27 -33 1z m105 -120 c4 -6 -7
-10 -27 -9 -31 1 -32 1 -8 9 14 4 26 8 27 9 1 1 5 -3 8 -9z"/>
<path d="M5950 11710 c0 -5 5 -10 10 -10 6 0 10 5 10 10 0 6 -4 10 -10 10 -5
0 -10 -4 -10 -10z"/>
<path d="M7600 11669 c0 -5 5 -7 10 -4 6 3 10 8 10 11 0 2 -4 4 -10 4 -5 0
-10 -5 -10 -11z"/>
<path d="M7690 11671 c0 -5 5 -13 10 -16 6 -3 10 -2 10 4 0 5 -4 13 -10 16 -5
3 -10 2 -10 -4z"/>
<path d="M6560 11546 c0 -10 -9 -16 -23 -16 -21 0 -23 -4 -19 -32 3 -18 7 -27
9 -20 8 23 33 13 33 -14 0 -21 -4 -25 -18 -22 -11 3 -19 0 -19 -8 0 -8 10 -14
22 -14 11 0 26 -5 33 -12 9 -9 12 -9 12 3 0 7 8 2 18 -14 10 -15 22 -24 27
-20 4 5 5 0 2 -9 -4 -13 -2 -15 10 -11 11 4 14 2 9 -5 -5 -8 2 -12 21 -12 15
0 37 -8 48 -17 16 -13 17 -15 3 -10 -11 4 -18 1 -18 -6 0 -8 26 -13 84 -15 70
-3 84 -1 90 13 3 9 10 14 15 10 15 -8 24 13 17 41 -4 13 -13 24 -21 24 -8 0
-15 6 -15 14 0 8 -14 17 -32 21 -58 12 -67 16 -62 29 3 9 -6 16 -28 20 -21 4
-37 14 -43 29 -6 13 -17 21 -29 19 -10 -2 -25 0 -35 4 -9 4 -23 8 -31 8 -8 1
-14 7 -12 14 1 6 -2 12 -8 12 -5 0 -10 -7 -10 -15 0 -8 -5 -15 -11 -15 -6 0
-9 7 -6 15 4 8 2 17 -3 20 -6 4 -10 -1 -10 -9z"/>
<path d="M8180 11455 c-7 -8 -8 -15 -2 -15 5 0 15 7 22 15 7 8 8 15 2 15 -5 0
-15 -7 -22 -15z"/>
<path d="M8193 11413 c-18 -7 -16 -30 2 -37 8 -3 15 -1 15 3 0 5 3 16 6 25 6
16 0 19 -23 9z"/>
<path d="M6605 11350 c3 -5 8 -10 11 -10 2 0 4 5 4 10 0 6 -5 10 -11 10 -5 0
-7 -4 -4 -10z"/>
<path d="M8764 11098 c0 -12 7 -23 14 -26 13 -4 15 7 6 32 -9 23 -21 20 -20
-6z"/>
<path d="M8365 11101 c3 -6 14 -11 23 -12 14 0 13 -2 -3 -9 -20 -8 -20 -9 1
-9 15 -1 20 -7 19 -23 -1 -14 6 -27 19 -34 12 -6 20 -16 19 -22 -2 -7 5 -12
15 -12 17 0 21 -11 25 -62 1 -12 10 -18 24 -18 12 0 24 -4 28 -10 3 -5 11 -7
18 -4 7 2 17 -6 22 -18 9 -20 17 -23 69 -23 l59 0 4 47 4 46 -35 -8 c-35 -8
-56 2 -56 27 0 7 -12 14 -27 14 -16 1 -35 3 -43 4 -8 1 -20 3 -27 4 -6 0 -14
9 -16 19 -3 11 -5 9 -6 -8 -1 -19 -4 -21 -10 -11 -5 8 -7 20 -4 28 4 9 -4 13
-23 13 -27 0 -29 2 -29 42 0 43 0 43 -39 46 -25 2 -36 0 -31 -7z m302 -197
c-3 -3 -12 -4 -19 -1 -8 3 -5 6 6 6 11 1 17 -2 13 -5z"/>
<path d="M7385 11090 c3 -5 10 -10 16 -10 5 0 9 5 9 10 0 6 -7 10 -16 10 -8 0
-12 -4 -9 -10z"/>
<path d="M7484 11061 c4 -6 0 -11 -8 -11 -9 0 -16 -4 -16 -10 0 -10 3 -11 33
-14 6 0 16 -11 22 -24 7 -16 21 -24 47 -29 22 -3 38 -11 38 -19 0 -7 10 -14
23 -16 12 -2 21 -9 19 -17 -4 -19 18 -32 41 -25 18 6 47 -11 47 -28 0 -5 -9
-6 -20 -3 -13 4 -20 2 -20 -7 0 -10 17 -14 55 -16 59 -2 64 1 40 24 -8 9 -15
28 -15 44 0 22 -5 29 -22 32 -13 2 -22 8 -20 13 4 11 -30 23 -71 24 -33 1 -48
15 -62 55 -9 27 -15 30 -64 34 -36 2 -51 0 -47 -7z m196 -141 c0 -5 -2 -10 -4
-10 -3 0 -8 5 -11 10 -3 6 -1 10 4 10 6 0 11 -4 11 -10z"/>
<path d="M9160 10910 c0 -15 -7 -20 -25 -20 -21 0 -25 -5 -25 -29 0 -24 -3
-28 -20 -24 -13 3 -20 14 -20 29 0 22 -4 24 -45 24 -31 0 -43 -4 -40 -12 9
-24 -11 -37 -64 -42 -54 -5 -83 -16 -42 -16 12 0 19 -4 16 -10 -3 -5 -2 -10 4
-10 5 0 11 6 14 13 6 17 17 4 32 -40 8 -21 14 -30 15 -20 0 9 8 17 18 18 14 0
14 2 -3 9 -22 10 -5 13 19 4 8 -3 12 -12 9 -21 -5 -13 0 -15 30 -9 20 4 48 3
64 -1 l28 -7 -30 -7 -30 -7 28 -1 c15 0 27 -5 27 -10 0 -6 19 -11 43 -13 32
-2 41 -7 39 -19 -2 -13 9 -18 44 -24 32 -4 44 -10 40 -20 -4 -10 11 -15 60
-20 35 -4 67 -11 70 -16 3 -5 -3 -9 -12 -9 -59 0 49 -20 119 -22 20 -1 31 -8
38 -25 4 -12 14 -23 20 -23 7 0 21 -8 32 -17 12 -11 17 -12 12 -4 -5 10 -4 12
3 7 7 -4 12 -20 12 -37 0 -26 -9 -34 -32 -30 -5 0 -8 -22 -8 -50 0 -46 2 -50
23 -47 16 2 23 -3 25 -19 2 -14 10 -23 22 -23 13 0 20 -10 25 -37 4 -25 9 -32
15 -23 6 10 9 7 12 -11 2 -19 8 -24 31 -22 24 2 27 -1 23 -23 -4 -20 -1 -24
21 -24 17 0 27 -7 30 -20 3 -12 12 -19 22 -18 11 2 17 -6 19 -25 3 -22 8 -27
25 -25 16 2 22 -2 22 -17 0 -13 7 -20 20 -20 13 0 21 -8 23 -22 3 -17 10 -23
28 -23 17 0 24 -6 24 -19 0 -10 9 -21 20 -24 12 -3 20 -14 20 -26 0 -25 27
-28 33 -3 4 13 5 11 6 -5 1 -21 11 -28 34 -24 4 0 7 -4 7 -9 0 -6 -8 -10 -17
-10 -11 0 -6 -6 14 -16 22 -11 30 -21 26 -32 -4 -13 -2 -13 9 2 14 18 15 18
23 -10 5 -16 8 -32 7 -36 -1 -4 7 -12 18 -18 11 -6 18 -14 16 -19 -3 -4 8 -20
25 -35 16 -15 30 -32 30 -37 1 -5 2 -15 3 -21 0 -7 8 -13 16 -13 9 0 16 -11
18 -27 3 -25 12 -33 35 -29 4 0 7 -10 7 -24 0 -14 5 -25 10 -25 6 0 10 -5 10
-11 0 -5 -6 -7 -12 -3 -8 4 -10 3 -5 -2 5 -5 13 -10 18 -10 5 -1 14 -2 19 -3
6 0 10 -12 10 -26 0 -18 5 -25 20 -25 15 0 20 -7 20 -25 0 -20 5 -25 25 -25
24 0 31 -15 26 -57 -2 -12 11 -17 32 -14 4 0 7 -12 7 -29 0 -23 5 -30 19 -30
13 0 21 -8 23 -22 2 -15 11 -24 26 -26 12 -2 22 -10 22 -19 0 -18 51 -74 62
-67 4 3 12 -6 18 -20 12 -33 50 -36 50 -5 0 12 -8 23 -20 26 -13 3 -20 14 -20
29 0 19 -5 24 -26 24 -25 0 -25 2 -18 43 4 23 7 53 6 66 -2 18 1 21 11 12 8
-6 17 -8 20 -4 4 3 7 -1 7 -11 0 -9 -4 -14 -10 -11 -5 3 -10 1 -10 -4 0 -6 16
-11 35 -11 32 0 40 -7 36 -32 0 -5 8 -8 19 -8 15 0 20 7 20 25 0 16 -6 25 -15
25 -8 0 -15 5 -15 10 0 6 5 9 11 8 6 -2 14 3 16 10 3 7 -3 12 -15 12 -15 0
-21 9 -26 39 -4 27 -12 42 -26 46 -11 3 -20 15 -20 26 0 16 -7 19 -45 19 -25
0 -44 -3 -44 -7 4 -27 -3 -43 -20 -43 -15 0 -20 10 -25 51 -5 39 -10 49 -22
45 -9 -4 -18 3 -24 19 -5 14 -16 25 -25 25 -8 0 -15 9 -15 19 0 13 -8 21 -22
23 -20 3 -23 10 -26 51 -3 42 -5 47 -28 47 -13 0 -23 3 -23 8 4 22 -3 32 -21
32 -18 0 -20 7 -20 65 l0 65 -40 0 c-22 0 -41 5 -41 10 -1 6 -2 16 -3 23 0 6
-11 13 -23 15 -20 3 -23 9 -23 48 l0 44 -45 0 c-38 0 -45 3 -45 20 0 15 -7 20
-25 20 -14 0 -24 3 -24 8 1 4 1 24 0 45 -1 30 -5 37 -21 37 -13 0 -20 7 -20
20 0 13 -7 20 -20 20 -15 0 -20 7 -20 25 0 20 -5 25 -25 25 -23 0 -25 4 -25
45 0 41 -2 45 -25 45 -18 0 -25 5 -25 20 0 13 -7 20 -20 20 -17 0 -20 7 -20
45 l0 45 -45 0 c-38 0 -45 3 -45 20 0 15 -7 20 -25 20 -20 0 -25 5 -25 25 0
16 -6 25 -15 25 -9 0 -15 9 -15 25 0 20 -5 25 -24 25 -18 0 -25 6 -28 23 -2
12 -9 23 -15 23 -7 1 -17 2 -23 3 -5 0 -10 19 -10 41 0 37 -2 40 -27 41 -16 1
-31 1 -35 0 -5 0 -8 6 -8 15 0 14 3 14 15 4 12 -10 15 -10 15 3 0 10 -15 17
-45 21 -36 6 -45 11 -45 27 0 16 -7 19 -45 19 -38 0 -45 3 -45 20 0 13 -9 22
-26 26 -19 5 -24 11 -20 26 4 17 1 19 -20 15 -20 -3 -24 0 -24 19 0 17 -6 24
-20 24 -13 0 -20 -7 -20 -20 0 -15 -7 -20 -25 -20 -18 0 -25 5 -25 20 0 13 -7
20 -20 20 -13 0 -20 -7 -20 -20z"/>
<path d="M7823 10882 c-25 -4 -30 -17 -10 -25 8 -4 9 -8 1 -14 -6 -4 -13 -18
-16 -30 -5 -20 -3 -22 19 -17 18 5 28 1 39 -15 8 -11 22 -21 31 -21 11 0 14
-7 11 -25 -3 -13 -2 -23 1 -21 14 8 50 -14 45 -28 -4 -11 7 -16 50 -21 31 -4
62 -5 71 -1 15 5 22 -18 8 -27 -5 -2 -3 -2 4 -1 6 2 14 -2 17 -9 3 -9 8 -8 15
3 7 10 11 11 11 3 0 -7 7 -13 15 -13 9 0 16 -10 16 -22 1 -19 3 -17 9 7 l8 30
2 -35 c1 -19 2 -38 1 -42 -2 -13 17 -9 21 4 3 7 9 8 18 3 10 -6 9 -11 -5 -22
-17 -12 -17 -13 11 -14 16 -1 37 -1 47 0 9 1 17 -3 17 -10 0 -7 -10 -9 -30 -5
-24 4 -30 2 -30 -12 0 -11 3 -13 8 -6 9 15 52 0 52 -18 0 -9 3 -9 9 2 6 8 7
18 5 22 -3 4 0 8 6 8 7 0 10 -7 6 -15 -3 -8 0 -15 7 -15 9 0 8 -3 -1 -9 -11
-7 -11 -9 2 -14 10 -4 16 -1 16 8 0 8 7 15 15 15 9 0 12 -6 9 -15 -5 -11 1
-15 19 -15 17 0 26 -7 30 -21 3 -11 15 -23 26 -26 11 -3 18 -10 15 -15 -3 -5
4 -12 17 -15 22 -6 22 -7 3 -14 -15 -6 -12 -8 14 -8 31 -1 47 -21 16 -21 -8 0
-12 -5 -8 -11 3 -6 14 -9 24 -6 11 3 21 -1 24 -9 3 -8 11 -14 18 -13 10 0 10
2 1 6 -25 9 -13 19 18 15 22 -3 30 -1 25 7 -5 8 0 8 17 2 24 -9 24 -9 16 27
-5 20 -9 40 -9 45 0 17 -20 5 -20 -13 0 -11 -5 -20 -11 -20 -7 0 -10 12 -7 28
4 26 -13 57 -25 46 -2 -2 -10 2 -17 11 -7 8 -19 15 -26 15 -8 0 -14 5 -14 10
0 6 -11 10 -24 10 -31 0 -50 22 -33 39 6 7 8 12 2 11 -33 -7 -45 1 -45 28 0
21 -11 39 -41 66 -37 35 -53 43 -88 45 -8 1 -11 7 -7 17 5 13 2 15 -14 11 -11
-3 -23 -1 -26 4 -3 6 -13 9 -22 8 -34 -3 -43 1 -40 19 3 16 -17 35 -54 48 -10
3 -18 10 -18 15 0 5 -11 9 -24 9 -15 0 -26 7 -29 20 -4 16 -14 20 -50 20 -36
0 -46 4 -50 20 -3 10 0 21 7 23 12 5 -85 4 -121 -1z"/>
<path d="M8726 10879 c7 -12 74 -15 78 -4 2 5 5 2 5 -7 1 -24 21 -23 21 1 0
17 -7 19 -54 18 -30 -1 -52 -5 -50 -8z"/>
<path d="M8603 10803 c9 -2 23 -2 30 0 6 3 -1 5 -18 5 -16 0 -22 -2 -12 -5z"/>
<path d="M10590 10735 c0 -20 -5 -25 -25 -25 -22 0 -25 -4 -25 -39 0 -33 4
-40 23 -43 19 -3 22 -10 25 -50 l3 -48 65 0 64 0 0 51 c0 46 2 51 20 46 21 -5
45 16 35 33 -3 5 1 10 10 10 13 0 14 -4 5 -20 -7 -14 -7 -20 0 -20 5 0 11 8
12 18 5 57 5 57 -40 60 -40 3 -48 11 -44 43 1 4 -28 7 -63 8 -63 1 -65 0 -65
-24z"/>
<path d="M9933 10652 c-11 -7 -16 -32 -14 -63 0 -9 9 -16 18 -15 12 0 19 -7
21 -21 3 -17 10 -23 28 -23 17 0 24 -5 24 -20 0 -13 7 -20 20 -20 13 0 20 -7
20 -20 0 -15 7 -20 25 -20 20 0 25 -5 25 -25 0 -14 5 -25 10 -25 6 0 10 10 10
23 0 17 2 19 9 7 6 -8 7 -18 5 -22 -3 -4 9 -8 25 -8 26 0 31 -4 31 -24 0 -16
7 -27 21 -31 17 -6 19 -9 8 -16 -10 -6 -5 -10 18 -15 22 -4 33 -13 35 -28 2
-13 11 -22 26 -24 19 -3 22 -9 22 -48 0 -37 3 -44 20 -44 11 0 20 -7 20 -15 0
-9 9 -15 25 -15 23 0 25 -3 25 -50 0 -47 2 -50 25 -50 18 0 25 -5 25 -20 0
-13 7 -20 20 -20 15 0 20 -7 20 -25 0 -18 5 -25 20 -25 17 0 20 -7 20 -45 0
-41 2 -45 25 -45 18 0 25 -5 25 -20 0 -14 7 -20 24 -20 22 0 24 -4 22 -41 -2
-33 1 -43 16 -47 10 -2 18 -13 18 -23 0 -14 7 -19 25 -19 20 0 25 -5 25 -25 0
-18 5 -25 20 -25 16 0 21 -9 26 -50 5 -40 10 -50 25 -50 15 0 19 -8 19 -40 0
-33 3 -40 20 -40 17 0 20 -7 20 -41 0 -39 2 -41 25 -37 22 5 25 2 25 -22 0
-23 6 -29 33 -35 17 -4 27 -9 20 -12 -20 -7 -3 -33 22 -33 13 0 27 -5 31 -11
4 -8 9 -7 16 2 7 10 8 8 5 -8 -3 -13 0 -26 6 -30 7 -5 0 -10 -18 -14 -28 -5
-27 -6 18 -13 38 -7 48 -13 53 -32 4 -17 13 -24 29 -24 28 0 43 -19 25 -30
-10 -6 21 -21 53 -24 4 -1 12 -7 17 -15 5 -8 21 -16 37 -19 15 -2 29 -7 31
-11 1 -4 27 -2 57 3 l54 10 -1 43 c0 33 -4 43 -17 42 -10 0 -11 -2 -3 -6 6 -2
12 -9 12 -14 0 -16 -28 2 -33 22 -4 16 -2 19 16 14 16 -5 18 -4 8 3 -11 8 -10
11 5 15 11 3 6 5 -11 4 -27 -2 -30 0 -27 26 3 26 2 28 -16 18 -18 -10 -20 -6
-27 47 -4 31 -12 60 -19 64 -8 6 -8 8 2 8 6 0 12 5 12 11 0 6 -7 9 -15 5 -8
-3 -15 -1 -15 4 0 6 -11 10 -25 10 -22 0 -25 4 -25 40 0 36 -2 40 -25 40 -20
0 -25 5 -25 25 0 15 -6 25 -15 25 -10 0 -17 14 -21 40 -5 30 -11 40 -25 40
-13 0 -19 7 -19 24 0 18 -6 25 -22 28 -15 2 -24 11 -26 26 -2 14 -10 22 -22
22 -14 0 -20 10 -25 41 -4 22 -13 43 -21 46 -8 3 -14 14 -14 24 0 14 -7 19
-25 19 -18 0 -25 5 -25 20 0 15 -7 20 -25 20 -23 0 -25 4 -25 45 0 38 -3 45
-20 45 -15 0 -20 7 -20 25 0 20 -5 25 -25 25 -18 0 -25 5 -25 20 0 13 -7 20
-20 20 -15 0 -20 7 -20 25 0 20 -5 25 -25 25 -18 0 -25 5 -25 20 0 13 -7 20
-20 20 -13 0 -20 7 -20 20 0 15 -7 20 -25 20 -20 0 -25 5 -25 25 0 18 -5 25
-20 25 -13 0 -20 7 -20 20 0 13 -7 20 -20 20 -15 0 -20 7 -20 25 0 20 -5 25
-25 25 -18 0 -25 5 -25 20 0 13 -7 20 -20 20 -15 0 -20 7 -20 25 0 21 -5 25
-30 25 -24 0 -30 4 -28 17 2 10 -2 18 -9 18 -6 0 -15 3 -19 8 -4 4 -18 7 -31
7 -13 0 -23 6 -23 14 0 8 -10 16 -22 18 -17 2 -22 9 -20 26 3 18 -2 22 -22 22
-21 0 -26 5 -26 25 0 17 -5 24 -17 23 -50 -4 -73 3 -73 21 0 14 -10 20 -40 25
-26 4 -40 11 -40 21 0 9 -10 15 -25 15 -16 0 -25 -6 -25 -15 0 -8 -8 -15 -17
-15 -15 0 -16 2 -3 10 8 5 12 11 9 14 -2 3 -10 2 -16 -2z m407 -242 c0 -5 -4
-10 -10 -10 -5 0 -10 5 -10 10 0 6 5 10 10 10 6 0 10 -4 10 -10z"/>
<path d="M10672 10353 l3 -47 55 2 c30 1 49 -1 43 -4 -7 -3 -13 -12 -13 -20 0
-10 12 -14 41 -14 41 0 41 0 35 31 -3 17 -6 37 -7 43 0 6 -4 2 -9 -9 -7 -17
-9 -17 -9 -2 -1 17 -15 20 -71 18 -25 -1 -25 -1 -2 9 12 5 22 16 22 25 0 11
-11 15 -46 15 l-45 0 3 -47z"/>
<path d="M11310 10389 c0 -5 -5 -7 -12 -3 -6 4 -8 3 -4 -4 3 -5 0 -13 -6 -15
-10 -4 -10 -6 0 -6 6 -1 12 -10 12 -20 0 -19 23 -35 34 -24 11 12 6 63 -6 63
-9 0 -8 4 2 10 13 8 12 10 -2 10 -10 0 -18 -5 -18 -11z"/>
<path d="M10841 10334 c0 -11 3 -14 6 -6 3 7 2 16 -1 19 -3 4 -6 -2 -5 -13z"/>
<path d="M10859 10308 c-10 -34 -6 -38 39 -37 l47 1 -35 10 c-31 9 -33 11 -15
19 17 7 17 8 -7 8 -16 1 -28 0 -29 -1z"/>
<path d="M8733 10275 c15 -32 26 -32 19 0 -2 14 -10 25 -17 25 -10 0 -11 -5
-2 -25z"/>
<path d="M8538 10273 c7 -3 16 -2 19 1 4 3 -2 6 -13 5 -11 0 -14 -3 -6 -6z"/>
<path d="M8630 10230 c0 -5 5 -10 11 -10 5 0 7 5 4 10 -3 6 -8 10 -11 10 -2 0
-4 -4 -4 -10z"/>
<path d="M8680 10230 c-8 -5 -10 -10 -5 -10 6 0 17 5 25 10 8 5 11 10 5 10 -5
0 -17 -5 -25 -10z"/>
<path d="M8905 10200 c-3 -5 1 -10 10 -10 9 0 13 5 10 10 -3 6 -8 10 -10 10
-2 0 -7 -4 -10 -10z"/>
<path d="M8695 10190 c3 -5 8 -10 11 -10 2 0 4 5 4 10 0 6 -5 10 -11 10 -5 0
-7 -4 -4 -10z"/>
<path d="M8740 10180 c0 -11 5 -20 10 -20 6 0 10 9 10 20 0 11 -4 20 -10 20
-5 0 -10 -9 -10 -20z"/>
<path d="M8807 10140 c3 -12 0 -20 -6 -20 -7 0 -9 -4 -6 -10 3 -5 -1 -10 -10
-10 -10 0 -14 5 -9 13 5 9 4 9 -6 0 -22 -20 -3 -26 73 -24 41 1 52 25 17 36
-11 3 -20 13 -20 21 0 8 -9 14 -19 14 -14 0 -18 -5 -14 -20z"/>
<path d="M11477 10118 c-7 -4 1 -8 18 -9 l30 -1 -30 -8 c-25 -8 -69 -16 -97
-19 -5 -1 -8 -10 -8 -21 0 -15 -7 -20 -25 -20 -22 0 -25 -4 -25 -39 0 -31 -4
-41 -20 -46 -25 -8 -27 -40 -2 -42 9 -1 26 -4 37 -6 11 -3 23 -6 28 -6 4 -1 7
-10 7 -21 0 -15 7 -20 25 -20 18 0 25 -5 25 -20 0 -17 8 -19 68 -22 45 -2 67
-7 67 -15 0 -14 9 -17 28 -10 9 4 9 6 0 6 -7 1 -13 6 -13 11 0 6 3 9 8 9 4 -1
28 -1 54 0 37 1 48 5 53 21 5 16 15 20 51 20 42 0 44 1 40 25 -4 20 -1 25 15
25 12 0 19 5 16 13 -2 6 0 20 5 30 15 28 -1 87 -23 87 -11 0 -24 10 -29 23 -8
20 -9 21 -10 2 -1 -19 -2 -19 -12 3 -6 12 -16 22 -22 21 -6 -1 -39 -1 -73 0
-56 1 -61 3 -56 21 3 12 0 20 -6 20 -7 0 -9 -4 -6 -10 3 -5 -1 -10 -10 -10 -9
0 -13 5 -10 10 8 12 -79 10 -98 -2z"/>
<path d="M11668 10123 c7 -3 16 -2 19 1 4 3 -2 6 -13 5 -11 0 -14 -3 -6 -6z"/>
<path d="M8874 10072 c5 -8 -1 -16 -16 -22 -21 -8 -20 -9 10 -7 36 1 40 8 15
28 -12 10 -15 10 -9 1z"/>
<path d="M8815 10050 c-3 -5 -1 -10 4 -10 6 0 11 5 11 10 0 6 -2 10 -4 10 -3
0 -8 -4 -11 -10z"/>
<path d="M8930 10049 c0 -5 5 -7 10 -4 6 3 10 8 10 11 0 2 -4 4 -10 4 -5 0
-10 -5 -10 -11z"/>
<path d="M11119 9955 c-3 -2 -33 -5 -68 -7 -67 -2 -75 -6 -60 -28 8 -13 10
-13 19 0 9 13 10 13 11 0 1 -8 1 -25 1 -37 -1 -20 4 -22 86 -25 48 -2 101 -1
119 0 30 4 31 6 29 45 -1 32 -6 42 -18 42 -9 0 -20 4 -24 8 -8 8 -88 10 -95 2z"/>
<path d="M12018 9928 c-2 -15 -11 -24 -25 -26 -15 -2 -23 -10 -23 -22 0 -10
-5 -22 -11 -26 -8 -4 -7 -9 2 -16 11 -7 11 -8 -1 -7 -28 4 -70 -19 -64 -35 7
-18 39 -30 54 -21 6 4 17 2 24 -4 9 -7 22 -7 44 1 28 11 32 17 37 68 4 30 8
67 10 83 3 23 0 27 -20 27 -17 0 -25 -6 -27 -22z"/>
<path d="M11140 9830 c0 -5 17 -10 38 -9 33 1 34 2 12 9 -36 11 -50 11 -50 0z"/>
<path d="M11970 9750 c0 -10 2 -11 37 -15 16 -2 20 2 15 13 -4 11 -7 12 -10 4
-2 -8 -9 -9 -23 -2 -13 7 -19 7 -19 0z"/>
<path d="M4596 9705 c5 -13 -8 -15 -82 -16 -49 0 -100 -2 -114 -3 -14 -1 -82
-3 -152 -4 -121 -2 -128 -3 -128 -22 0 -19 -7 -20 -114 -20 -111 0 -115 -1
-118 -22 -3 -22 -8 -23 -90 -26 -79 -2 -88 -5 -88 -22 0 -16 -11 -19 -91 -26
-68 -5 -89 -10 -85 -20 4 -9 -8 -14 -42 -16 -40 -3 -47 -6 -50 -25 -3 -21 -9
-23 -68 -23 -57 0 -64 -2 -64 -19 0 -16 -9 -21 -45 -27 -27 -4 -45 -11 -45
-20 0 -8 -18 -15 -46 -20 -32 -4 -44 -10 -40 -20 7 -18 -7 -25 -54 -26 -35 0
-40 -3 -40 -24 0 -17 -6 -24 -20 -24 -15 0 -20 -7 -20 -25 0 -20 -5 -25 -26
-25 -19 0 -25 -4 -22 -17 3 -16 17 -18 108 -19 139 -1 150 -2 150 -15 0 -6 -6
-9 -12 -6 -7 2 -22 1 -33 -4 -13 -5 1 -8 42 -8 58 -1 61 0 55 21 -5 19 -2 21
34 16 51 -7 120 5 117 20 -2 8 24 11 95 8 116 -4 203 11 199 34 -1 12 12 16
68 21 39 3 61 7 50 8 l-20 2 20 9 20 9 -20 1 c-18 1 -18 2 3 11 13 5 82 9 153
10 112 1 127 3 112 15 -17 13 -17 14 1 7 12 -4 17 -3 13 4 -10 16 59 24 209
24 99 0 134 3 134 12 0 9 3 9 9 -1 11 -18 377 -13 374 6 -2 9 53 12 252 12
182 0 255 -3 255 -11 0 -8 5 -8 15 1 11 9 73 13 226 13 185 0 213 -2 224 -16
7 -10 34 -19 69 -23 41 -5 60 -12 67 -26 5 -10 15 -18 22 -16 7 1 36 -2 66 -6
37 -6 49 -11 40 -17 -21 -13 7 -29 53 -29 27 0 38 -5 43 -19 6 -19 43 -31 100
-31 46 0 71 -10 53 -21 -8 -6 2 -9 30 -9 23 0 42 -4 42 -10 0 -5 12 -10 28
-11 l27 -1 -25 -7 c-18 -6 1 -10 65 -15 50 -4 99 -8 110 -9 14 -1 19 -8 18
-25 -2 -13 3 -22 11 -22 15 0 48 -59 40 -72 -3 -4 7 -8 23 -9 92 -4 97 -5 103
-24 4 -18 13 -20 70 -20 36 1 74 -2 85 -6 25 -8 72 8 79 27 4 10 -2 14 -19 14
-24 0 -51 31 -38 44 3 3 -8 6 -25 6 -17 0 -34 5 -38 12 -5 7 -2 9 9 5 10 -4
14 -2 11 7 -3 8 -27 13 -64 14 -70 2 -82 -15 -15 -21 l45 -4 -47 1 -48 1 -2
45 c-1 25 3 50 7 55 6 7 0 12 -18 13 -15 1 -36 4 -47 6 -11 3 -23 5 -27 5 -5
1 -8 8 -8 16 0 11 -12 15 -45 15 -41 0 -45 2 -45 25 0 24 -2 25 -65 25 -63 0
-65 1 -65 25 0 23 -4 25 -41 25 -32 0 -42 4 -46 20 -5 19 -31 26 -71 21 -8 -1
-16 7 -19 18 -4 17 -14 21 -47 22 -61 1 -91 13 -88 32 2 14 -7 17 -59 17 -55
0 -61 2 -44 13 27 21 5 30 -87 35 -53 3 -78 9 -78 17 0 14 -53 25 -127 25 -46
0 -53 3 -53 20 0 19 -7 20 -90 20 -73 0 -90 3 -90 15 0 8 -5 15 -11 15 -5 0
-7 -4 -4 -10 4 -6 -1 -7 -11 -3 -14 5 -13 8 7 19 21 12 5 13 -113 14 -128 0
-138 1 -138 19 0 25 -63 31 -334 32 -116 1 -203 3 -193 6 43 11 9 23 -68 23
-71 0 -83 -2 -79 -15z m2104 -585 c0 -21 -12 -24 -45 -10 -18 8 -18 9 -2 9 10
1 15 6 12 11 -3 6 3 10 14 10 14 0 21 -6 21 -20z m214 -118 c2 -4 -4 -9 -15
-9 -10 -1 -19 2 -19 8 0 11 27 12 34 1z"/>
<path d="M11373 9543 c-19 -4 -23 -11 -23 -44 0 -27 4 -39 14 -39 8 0 17 6 19
13 3 6 6 -5 6 -25 1 -34 4 -38 26 -38 23 0 25 -4 25 -40 0 -33 3 -40 20 -40
15 0 20 -7 20 -25 0 -20 5 -25 25 -25 19 0 25 -5 26 -22 1 -22 1 -22 9 2 l8
25 2 -25 2 -25 8 25 8 25 1 -27 c1 -24 5 -28 30 -28 16 0 43 -3 62 -7 28 -5
30 -7 14 -14 -14 -5 -8 -8 23 -8 23 -1 54 -8 67 -17 l25 -16 0 56 c0 49 -2 56
-20 56 -15 0 -20 7 -20 25 0 20 -5 25 -25 25 -24 0 -25 3 -25 54 0 30 -4 58
-10 61 -6 3 -7 -1 -4 -9 4 -11 0 -16 -10 -16 -9 0 -16 8 -16 20 0 15 -7 20
-25 20 -20 0 -25 5 -25 25 0 24 -2 25 -65 25 -58 0 -65 2 -65 20 0 17 -6 20
-42 19 -24 -1 -53 -4 -65 -6z"/>
<path d="M12073 9350 c3 -11 0 -21 -6 -21 -7 -1 -19 -2 -27 -3 -8 -1 -27 2
-42 6 -28 7 -28 6 -28 -43 0 -48 1 -49 30 -49 30 0 41 14 18 23 -7 2 -1 8 15
12 15 4 27 11 27 16 0 19 3 24 21 37 23 16 25 42 3 42 -11 0 -15 -6 -11 -20z
m-66 -49 c0 -11 -5 -18 -9 -15 -4 3 -5 11 -1 19 7 21 12 19 10 -4z"/>
<path d="M10702 9256 c7 -8 15 -12 17 -11 5 6 -10 25 -20 25 -5 0 -4 -6 3 -14z"/>
<path d="M12045 9250 c3 -5 8 -10 11 -10 2 0 4 5 4 10 0 6 -5 10 -11 10 -5 0
-7 -4 -4 -10z"/>
<path d="M10985 9240 c4 -6 11 -8 16 -5 14 9 11 15 -7 15 -8 0 -12 -5 -9 -10z"/>
<path d="M2903 9193 c-23 -3 -31 -9 -30 -22 1 -21 24 -24 31 -4 3 7 12 13 21
13 8 0 15 5 15 10 0 6 -1 9 -2 8 -2 0 -17 -3 -35 -5z"/>
<path d="M10992 9153 c2 -34 7 -48 18 -48 24 0 23 68 -1 83 -19 12 -20 11 -17
-35z"/>
<path d="M2953 9163 c9 -2 23 -2 30 0 6 3 -1 5 -18 5 -16 0 -22 -2 -12 -5z"/>
<path d="M6810 9140 c-12 -8 -10 -10 8 -10 13 0 20 4 17 10 -7 12 -6 12 -25 0z"/>
<path d="M10793 9085 c0 -8 4 -12 9 -9 5 3 6 10 3 15 -9 13 -12 11 -12 -6z"/>
<path d="M10776 9052 c-8 -13 11 -35 23 -28 16 10 14 36 -3 36 -8 0 -17 -4
-20 -8z"/>
<path d="M11852 9040 c7 -11 16 -20 20 -20 5 0 8 9 8 20 0 13 -7 20 -20 20
-18 0 -19 -2 -8 -20z"/>
<path d="M7050 9003 c0 -16 6 -23 20 -23 11 0 20 5 20 11 0 5 5 7 10 4 6 -3
10 -1 10 5 0 7 -8 9 -21 5 -14 -5 -25 -2 -30 6 -6 10 -9 8 -9 -8z"/>
<path d="M10815 9000 c-8 -14 3 -30 21 -30 9 0 14 -11 14 -31 0 -18 4 -28 10
-24 6 3 13 -1 16 -9 3 -9 10 -13 15 -10 5 3 9 -9 9 -25 0 -26 4 -31 25 -31 19
0 25 -5 25 -21 0 -11 -4 -17 -10 -14 -5 3 -10 4 -10 0 0 -3 11 -10 25 -15 14
-5 25 -16 25 -24 0 -9 15 -15 43 -18 52 -6 70 0 63 19 -4 9 2 17 15 20 12 4
18 11 15 20 -3 8 -6 17 -6 19 0 3 -4 2 -10 -1 -15 -9 -38 17 -32 37 3 13 -1
18 -17 18 -14 0 -21 6 -21 20 0 17 -7 20 -45 20 -42 0 -45 2 -45 26 0 21 -4
25 -20 21 -16 -4 -20 0 -20 19 0 21 -4 24 -39 24 -22 0 -43 -4 -46 -10z"/>
<path d="M11880 8991 c0 -19 23 -35 34 -24 14 15 5 43 -14 43 -13 0 -20 -7
-20 -19z"/>
<path d="M7110 8973 c0 -17 14 -23 29 -14 9 6 10 11 2 15 -6 4 -11 1 -11 -6 0
-9 -3 -9 -10 2 -6 9 -10 10 -10 3z"/>
<path d="M7040 8960 c0 -5 5 -10 10 -10 6 0 10 5 10 10 0 6 -4 10 -10 10 -5 0
-10 -4 -10 -10z"/>
<path d="M11935 8910 c-3 -5 -1 -11 5 -15 5 -3 10 0 10 7 0 26 20 -16 20 -43
0 -17 6 -28 18 -31 16 -5 19 2 21 42 l2 48 -36 0 c-19 0 -37 -4 -40 -8z"/>
<path d="M7106 8863 c-4 -9 -2 -21 4 -27 7 -7 10 -7 10 1 0 6 3 18 6 27 3 9 2
16 -4 16 -5 0 -13 -8 -16 -17z"/>
<path d="M11752 8778 c2 -18 10 -23 33 -25 17 -1 23 1 14 3 -11 3 -15 12 -12
27 4 18 3 19 -6 7 -7 -10 -11 -11 -11 -2 0 6 -5 12 -11 12 -6 0 -9 -10 -7 -22z"/>
<path d="M12015 8780 c-7 -12 2 -12 30 0 19 8 19 9 -2 9 -12 1 -25 -3 -28 -9z"/>
<path d="M12030 8761 c0 -5 6 -11 13 -14 8 -3 14 1 14 9 0 8 -6 14 -14 14 -7
0 -13 -4 -13 -9z"/>
<path d="M12076 8742 c-3 -5 1 -9 9 -9 8 0 15 4 15 9 0 4 -4 8 -9 8 -6 0 -12
-4 -15 -8z"/>
<path d="M11795 8730 c3 -5 8 -10 11 -10 2 0 4 5 4 10 0 6 -5 10 -11 10 -5 0
-7 -4 -4 -10z"/>
<path d="M12076 8708 c3 -4 9 -8 15 -8 5 0 9 4 9 8 0 5 -7 9 -15 9 -8 0 -12
-4 -9 -9z"/>
<path d="M11792 8621 c1 -30 7 -41 22 -45 11 -3 22 -3 25 -1 2 3 -1 5 -7 5 -7
0 -12 7 -12 16 0 9 5 12 12 8 8 -5 9 0 5 17 -4 13 -7 27 -7 32 0 4 -9 7 -20 7
-18 0 -20 -6 -18 -39z"/>
<path d="M4665 8279 c5 -7 -10 -9 -49 -6 -31 2 -56 1 -56 -4 0 -5 -39 -10 -87
-11 -70 -2 -88 -6 -88 -18 0 -8 -8 -14 -18 -14 -9 1 -17 -2 -17 -7 0 -5 -51
-9 -114 -9 -109 0 -115 -1 -111 -20 3 -15 -2 -20 -20 -20 -13 0 -30 -7 -39
-15 -17 -17 -30 -20 -21 -5 3 6 -1 10 -10 10 -9 0 -14 -4 -10 -9 3 -6 -11 -13
-32 -16 -58 -10 -63 -13 -63 -34 0 -16 -8 -20 -42 -23 -35 -2 -44 -7 -46 -24
-2 -12 -12 -24 -23 -27 -11 -3 -19 -11 -18 -19 5 -39 -2 -58 -21 -58 -12 0
-20 -7 -20 -17 0 -24 -51 -83 -71 -83 -10 0 -21 -16 -29 -40 -7 -22 -17 -40
-21 -40 -4 0 -11 -21 -14 -47 -4 -27 -15 -60 -26 -75 -10 -15 -19 -34 -19 -42
0 -27 -12 -45 -26 -39 -19 7 -18 -7 3 -22 17 -13 25 -35 24 -72 0 -11 6 -24
15 -27 8 -3 12 -2 9 3 -3 5 -1 12 5 16 5 3 10 2 10 -2 0 -5 9 -9 20 -10 15 -1
20 4 20 23 0 19 5 24 25 24 18 0 25 5 25 20 0 15 7 20 25 20 20 0 25 5 25 25
0 20 5 25 24 25 19 0 23 4 19 19 -4 15 1 20 19 23 15 2 23 9 22 21 -1 12 5 17
22 17 19 0 24 5 24 25 0 23 4 25 45 25 41 0 45 2 45 25 0 18 5 25 19 25 10 0
21 9 24 20 3 12 14 20 29 21 12 1 32 2 43 3 11 1 30 3 43 4 12 1 21 8 20 15
-2 8 22 13 87 17 62 3 90 9 91 18 1 6 2 17 3 22 1 11 486 14 540 4 21 -5 31
-12 31 -25 0 -17 9 -19 95 -19 74 0 95 -3 95 -14 0 -18 52 -26 166 -26 83 0
92 -2 97 -20 4 -14 14 -20 34 -20 64 0 103 -12 103 -31 0 -16 8 -19 45 -19 41
0 45 -2 45 -24 0 -16 6 -23 18 -23 84 0 112 -4 112 -17 0 -13 48 -26 103 -26
20 0 27 -5 27 -19 0 -15 10 -20 45 -25 36 -6 45 -11 45 -27 0 -16 7 -19 45
-19 38 0 45 -3 45 -20 0 -17 7 -20 49 -20 44 0 49 -2 46 -19 -3 -17 4 -21 41
-27 34 -5 44 -10 44 -25 0 -16 8 -19 45 -19 44 0 50 -5 46 -37 -1 -9 13 -13
44 -13 38 0 45 -3 45 -20 0 -17 7 -20 39 -20 33 0 40 -4 43 -22 2 -17 11 -24
31 -26 19 -2 27 -9 27 -23 0 -16 7 -19 40 -19 33 0 40 -3 40 -20 0 -17 7 -20
45 -20 41 0 45 -2 45 -25 0 -20 5 -25 25 -25 20 0 25 -5 25 -26 0 -14 4 -23
10 -19 6 3 20 3 31 0 17 -6 18 -9 8 -16 -19 -11 -9 -17 36 -22 32 -3 41 -9 43
-26 2 -13 11 -21 23 -21 14 0 19 -7 19 -25 0 -20 5 -25 25 -25 18 0 25 -5 25
-20 0 -15 7 -20 25 -20 18 0 25 -5 25 -20 0 -19 17 -25 68 -23 6 1 12 -10 12
-23 0 -19 5 -24 25 -24 20 0 25 -5 25 -25 0 -20 5 -25 25 -25 19 0 25 -5 23
-17 -2 -12 4 -19 20 -21 19 -3 22 -9 22 -48 0 -37 3 -44 20 -44 26 0 28 46 3
53 -17 4 -17 5 0 6 13 1 17 10 17 40 0 33 4 39 24 43 14 3 31 1 38 -3 7 -5 22
-9 33 -9 11 0 28 -9 38 -20 13 -16 29 -20 74 -20 32 0 65 5 73 10 10 6 11 10
3 10 -7 0 -13 5 -13 10 0 6 9 10 20 10 17 0 20 6 19 48 0 53 -10 85 -24 80 -6
-2 -11 9 -13 25 -2 19 -9 27 -23 27 -14 0 -19 7 -19 25 0 20 -5 25 -25 25 -18
0 -25 5 -25 20 0 14 -7 20 -21 20 -12 0 -23 8 -26 20 -3 11 -12 20 -19 20 -8
0 -14 10 -14 25 0 20 -5 25 -25 25 -20 0 -25 5 -25 25 0 20 -5 25 -25 25 -18
0 -25 5 -25 19 0 13 -8 21 -22 23 -13 2 -22 9 -20 16 1 7 -9 17 -23 22 -15 6
-25 17 -25 29 0 13 -8 21 -22 23 -16 2 -22 9 -20 21 2 9 -2 17 -8 17 -5 0 -10
-5 -10 -11 0 -17 -27 15 -32 37 -2 10 -8 20 -13 20 -41 6 -55 18 -61 55 -5 29
-12 39 -28 41 -14 2 -20 9 -18 21 2 13 -4 17 -28 17 -20 0 -30 5 -30 15 0 9
-10 15 -22 16 -22 1 -22 1 2 9 24 8 24 8 3 9 -16 1 -23 7 -23 22 0 11 -4 18
-8 15 -15 -9 -82 17 -82 31 0 7 -9 13 -20 13 -15 0 -20 7 -20 25 0 15 -5 25
-12 24 -46 -6 -80 2 -85 20 -3 13 -17 22 -44 26 -29 5 -39 12 -39 25 0 13 -9
20 -27 22 -16 2 -28 8 -28 15 0 19 -9 22 -63 24 -43 2 -51 5 -54 23 -2 12 -12
22 -23 24 -51 7 -65 13 -65 28 0 8 -8 18 -17 21 -10 4 -22 12 -28 19 -5 7 -30
14 -55 16 -38 3 -45 7 -48 26 -3 19 -10 22 -44 22 -32 0 -41 4 -45 21 -3 11
-11 18 -19 15 -7 -3 -16 -1 -19 4 -4 6 -15 10 -27 10 -11 0 -22 8 -25 19 -3
11 -11 17 -18 15 -7 -3 -16 -1 -20 5 -3 6 -17 11 -31 11 -13 0 -24 4 -24 9 0
6 -19 12 -42 15 -89 12 -124 15 -148 16 -23 1 -23 2 -5 10 l20 9 -20 1 -20 1
20 9 c13 6 -20 9 -92 9 -62 1 -113 5 -113 9 0 4 -13 15 -29 25 -25 14 -58 17
-226 17 -146 0 -194 3 -189 12 4 6 3 9 -2 5 -15 -9 -270 -18 -314 -11 -22 4
-37 10 -34 15 3 5 -4 9 -16 9 -13 0 -18 -4 -15 -11z m1305 -189 c0 -5 -4 -10
-10 -10 -5 0 -10 5 -10 10 0 6 5 10 10 10 6 0 10 -4 10 -10z m1356 -1256 c1
-13 -2 -24 -7 -24 -5 0 -9 10 -9 23 -1 21 -1 22 -15 3 -14 -19 -15 -19 -15 6
0 21 4 24 23 21 15 -3 22 -12 23 -29z"/>
<path d="M4958 8283 c12 -2 32 -2 45 0 12 2 2 4 -23 4 -25 0 -35 -2 -22 -4z"/>
<path d="M3466 5684 c-4 -9 -4 -19 -1 -22 3 -3 5 1 6 9 1 8 5 3 9 -11 8 -24 8
-23 9 8 1 34 -13 43 -23 16z"/>
<path d="M8735 5620 c3 -5 8 -10 11 -10 2 0 4 5 4 10 0 6 -5 10 -11 10 -5 0
-7 -4 -4 -10z"/>
<path d="M8590 5600 c0 -6 7 -10 15 -10 8 0 15 2 15 4 0 2 -7 6 -15 10 -8 3
-15 1 -15 -4z"/>
<path d="M8704 5583 c-8 -14 -14 -15 -25 -7 -9 7 -41 9 -81 6 -63 -4 -68 -6
-68 -27 0 -18 -7 -24 -39 -29 -21 -3 -41 -12 -44 -20 -9 -22 -85 -19 -97 5 -9
16 -22 19 -95 19 -66 0 -85 -3 -85 -14 0 -10 -19 -16 -62 -21 -62 -7 -112 -23
-78 -25 26 -2 -22 -17 -78 -25 -38 -5 -52 -11 -48 -20 4 -10 -10 -15 -52 -20
-62 -6 -128 -22 -99 -24 9 -1 17 -6 17 -12 0 -7 -10 -9 -26 -5 -17 5 -23 3
-19 -4 4 -6 -13 -11 -47 -12 -101 -3 -117 -4 -124 -11 -4 -4 13 -8 37 -8 27
-1 4 -6 -59 -14 -104 -12 -127 -20 -104 -34 8 -5 -18 -10 -62 -14 -41 -3 -83
-10 -93 -16 -10 -6 -12 -11 -5 -11 6 0 12 -4 12 -10 0 -6 -28 -10 -65 -10 -58
0 -65 -2 -65 -20 0 -18 -7 -20 -75 -21 -99 -2 -100 -2 -101 -16 -1 -7 -2 -17
-3 -23 -1 -6 -71 -10 -187 -10 -157 0 -185 -2 -181 -14 3 -8 -1 -17 -8 -20
-18 -6 -32 14 -16 23 6 4 -15 7 -46 6 -87 -3 -95 -4 -89 -14 6 -9 -40 -21 -81
-21 -15 0 -27 -8 -33 -22 -7 -18 -9 -19 -9 -5 -1 24 -21 21 -21 -4 0 -16 -6
-20 -27 -19 -96 7 -433 -1 -433 -10 0 -5 19 -11 43 -12 62 -2 -66 -15 -164
-17 -64 -1 -79 2 -94 19 -25 27 -110 29 -124 2 -7 -13 -20 -18 -47 -17 -39 1
-41 -2 -47 -55 -3 -34 -4 -35 -58 -42 -30 -4 -62 -5 -71 -2 -10 3 -18 1 -18
-5 0 -6 5 -11 12 -11 28 0 -6 -14 -40 -16 -20 -2 -31 -1 -24 2 17 8 15 24 -3
24 -9 0 -14 -9 -13 -24 1 -15 7 -22 15 -19 7 3 13 0 13 -6 0 -6 -7 -11 -15
-11 -8 0 -15 -5 -15 -11 0 -5 5 -7 11 -3 16 9 30 -18 17 -33 -8 -10 -4 -13 18
-14 25 0 26 -2 9 -9 -19 -8 -19 -8 5 -18 14 -6 21 -11 16 -11 -5 -1 -3 -7 3
-15 9 -11 9 -16 -1 -22 -7 -4 -10 -4 -6 1 4 4 1 14 -7 21 -18 19 -20 18 -21
-10 -2 -22 2 -24 33 -22 19 1 38 8 43 16 7 11 10 3 10 -27 l0 -43 45 0 c38 0
45 -3 45 -20 0 -16 7 -20 34 -20 54 0 96 -11 96 -26 0 -12 77 -14 463 -14 289
0 456 4 447 10 -13 8 -13 10 0 14 14 5 249 14 403 15 60 1 67 3 67 21 0 19 7
20 140 20 l140 0 0 25 0 25 105 0 c95 0 106 2 103 18 -3 15 8 17 90 20 82 2
92 5 92 21 0 15 10 21 50 26 40 6 50 11 50 26 0 17 8 19 85 19 47 0 85 4 85 9
0 5 -9 7 -20 4 -11 -3 -20 0 -20 6 0 6 7 11 15 11 8 0 15 5 15 10 0 6 22 10
49 10 39 0 50 4 53 17 2 10 10 18 18 19 8 1 27 2 43 2 20 2 27 7 27 22 0 14 7
20 25 21 14 1 33 2 43 3 9 0 19 10 22 21 5 15 16 21 48 23 34 3 42 7 42 23 0
16 7 19 45 19 41 0 45 2 45 25 0 18 5 25 20 25 13 0 20 7 20 19 0 15 10 20 45
25 36 6 45 11 45 27 0 14 7 19 25 19 19 0 25 5 23 18 -2 14 6 18 45 20 42 3
47 5 47 28 0 17 5 24 20 24 15 0 20 7 20 25 0 18 5 25 20 25 19 0 26 24 21 68
-1 7 9 12 24 12 21 0 25 5 25 29 0 25 3 28 28 25 15 -2 21 -1 14 2 -6 3 -10 9
-7 14 3 4 7 35 10 69 6 59 5 61 -17 61 -13 0 -28 -8 -34 -17z m36 -63 c0 -5
-5 -10 -11 -10 -5 0 -7 5 -4 10 3 6 8 10 11 10 2 0 4 -4 4 -10z"/>
<path d="M3482 5560 c0 -14 2 -19 5 -12 2 6 2 18 0 25 -3 6 -5 1 -5 -13z"/>
<path d="M3415 5529 c-16 -10 -24 -19 -17 -19 6 0 12 -4 12 -10 0 -5 -11 -10
-24 -10 -27 0 -37 -19 -42 -83 -3 -42 -14 -64 -14 -29 0 42 -20 33 -21 -10 -1
-24 -5 -54 -9 -68 -8 -25 -8 -25 -10 5 l-2 30 -9 -35 c-8 -31 -12 -303 -6
-356 2 -12 11 -29 20 -38 9 -10 17 -30 17 -46 0 -19 7 -33 20 -40 15 -8 20
-21 20 -50 0 -32 4 -39 23 -42 12 -2 22 -10 22 -18 0 -8 10 -19 23 -25 12 -5
22 -18 22 -27 0 -10 7 -18 15 -18 8 0 23 -18 32 -40 10 -22 23 -40 30 -40 7 0
13 -9 13 -19 0 -13 8 -21 22 -23 13 -2 24 -12 28 -26 3 -13 8 -23 12 -23 34 2
67 -14 70 -33 2 -13 9 -20 20 -18 9 1 23 -7 32 -19 9 -13 21 -19 30 -16 10 4
16 1 16 -7 0 -8 7 -13 16 -12 12 1 18 -9 21 -29 5 -44 11 -56 25 -53 28 5 70
-13 64 -27 -4 -12 7 -15 61 -15 52 0 64 3 55 12 -15 15 -15 28 -1 28 5 0 8 -3
6 -7 -6 -10 19 -34 26 -26 4 3 9 -8 13 -23 l8 -29 7 25 c13 46 10 60 -12 60
-13 0 -18 -4 -13 -12 4 -7 3 -8 -4 -4 -7 4 -12 21 -12 38 0 27 -2 30 -25 24
-22 -6 -25 -3 -25 19 0 18 -5 25 -20 25 -13 0 -20 7 -20 20 0 13 -7 20 -20 20
-15 0 -20 7 -20 25 0 20 -5 25 -25 25 -20 0 -25 5 -25 25 0 18 -5 25 -20 25
-17 0 -20 7 -20 40 0 33 -4 40 -19 40 -15 0 -20 10 -26 46 -5 39 -9 45 -26 41
-17 -5 -19 0 -19 45 0 45 -2 49 -22 46 -21 -3 -23 2 -26 50 -2 35 -7 52 -16
52 -16 0 -26 22 -26 57 0 16 -7 27 -20 30 -21 5 -21 10 -22 131 -1 37 -3 42
-24 42 -24 0 -24 1 -24 110 0 107 -1 110 -22 110 -22 0 -23 3 -21 92 1 78 0
88 -10 66 -6 -16 -14 -28 -18 -28 -10 0 -21 49 -14 60 8 13 5 12 -30 -11z
m-118 -481 c-3 -8 -6 -5 -6 6 -1 11 2 17 5 13 3 -3 4 -12 1 -19z m438 -398 c3
-5 1 -10 -4 -10 -6 0 -11 5 -11 10 0 6 2 10 4 10 3 0 8 -4 11 -10z"/>
<path d="M8776 5505 c-3 -8 -1 -15 4 -15 6 0 10 7 10 15 0 8 -2 15 -4 15 -2 0
-6 -7 -10 -15z"/>
<path d="M12803 4389 c-2 -23 3 -25 10 -4 4 8 3 16 -1 19 -4 3 -9 -4 -9 -15z"/>
<path d="M12740 4360 c0 -19 -14 -26 -70 -32 -17 -2 -25 -9 -26 -23 -2 -60 -4
-65 -24 -65 -13 0 -20 -7 -20 -20 0 -14 -7 -20 -24 -20 -24 0 -41 -23 -30 -41
3 -5 -6 -9 -20 -9 -13 0 -27 -6 -29 -12 -4 -10 -8 -9 -16 2 -10 13 -11 13 -12
0 -1 -8 -1 -21 0 -27 1 -8 -10 -13 -26 -14 -24 0 -25 -2 -8 -8 19 -8 19 -8 -3
-20 -20 -11 -22 -19 -23 -104 -1 -55 -4 -82 -8 -67 -7 23 -8 23 -15 -12 -5
-27 -15 -41 -34 -51 -15 -7 -26 -19 -24 -25 2 -12 -10 -16 -35 -13 -8 1 -13
-9 -13 -24 0 -20 -5 -25 -24 -25 -31 0 -56 -10 -56 -22 0 -5 5 -6 10 -3 6 3
10 2 10 -4 0 -5 -13 -12 -30 -16 -16 -4 -32 -15 -35 -26 -4 -10 -15 -19 -27
-19 -11 0 -22 -8 -25 -20 -4 -14 -18 -21 -52 -27 -25 -4 -52 -6 -58 -5 -7 2
-13 -2 -13 -7 0 -5 10 -12 23 -14 19 -4 19 -4 -5 -6 -15 0 -29 -5 -33 -11 -3
-5 -12 -7 -20 -4 -9 4 -18 -3 -24 -19 -5 -13 -19 -27 -30 -30 -12 -3 -21 -12
-21 -21 0 -10 -9 -16 -25 -17 -41 -2 -45 -4 -46 -14 -1 -18 -20 -34 -35 -28
-10 4 -14 -2 -14 -21 0 -21 -5 -26 -25 -26 -16 0 -25 -6 -25 -15 0 -16 -43
-38 -73 -37 -11 1 -17 -5 -15 -16 2 -12 -3 -16 -18 -15 -14 2 -24 -4 -27 -17
-3 -11 -17 -22 -33 -25 -57 -13 -58 -14 -34 -35 l23 -20 -26 0 c-20 0 -27 -5
-27 -19 0 -11 -9 -21 -21 -24 -12 -3 -18 -10 -14 -16 3 -6 -1 -21 -11 -33 -11
-16 -15 -17 -11 -5 4 11 1 17 -8 17 -7 0 -15 -10 -17 -22 -2 -15 -11 -24 -25
-26 -13 -2 -23 -10 -23 -18 0 -8 -5 -14 -11 -14 -5 0 -7 -4 -4 -10 6 -10 -14
-14 -43 -11 -8 1 -16 -6 -19 -17 -3 -13 -13 -19 -30 -19 -14 0 -29 -7 -34 -14
-7 -11 -9 -11 -9 -1 0 7 -5 10 -11 7 -6 -4 -8 -14 -5 -22 4 -11 1 -13 -14 -8
-18 6 -20 3 -15 -17 4 -16 1 -29 -9 -37 -19 -16 -21 -42 -3 -60 10 -11 10 -14
0 -18 -7 -3 -13 -15 -13 -29 0 -15 -5 -22 -13 -18 -18 7 -77 -51 -77 -76 0
-16 -7 -20 -33 -20 -26 0 -36 -6 -44 -23 -10 -21 -19 -24 -69 -26 -32 -1 -63
-6 -68 -11 -7 -7 -3 -10 9 -10 18 0 18 0 -1 -15 -10 -8 -29 -15 -42 -15 -13 0
-20 -4 -17 -10 4 -6 16 -8 28 -4 21 6 21 5 -1 -11 -15 -11 -32 -15 -48 -11
-14 4 -24 2 -24 -4 0 -5 -10 -10 -22 -11 -22 -1 -22 -1 2 -9 l25 -7 -28 -8
c-15 -4 -36 -5 -47 -2 -13 3 -20 0 -20 -9 0 -8 -7 -14 -15 -14 -8 0 -15 5 -15
12 0 6 -3 8 -6 5 -4 -4 -1 -13 6 -22 11 -13 8 -15 -17 -15 -16 0 -40 -10 -53
-22 -12 -12 -30 -22 -39 -23 -30 -3 -61 -16 -56 -25 6 -9 -30 -19 -82 -22 -27
-2 -33 -6 -33 -25 0 -16 -6 -23 -18 -23 -26 0 -34 11 -21 27 9 10 5 13 -20 13
-24 0 -31 -4 -31 -20 0 -17 -7 -20 -44 -20 -26 0 -46 -5 -49 -12 -4 -10 -8 -9
-16 2 -5 8 -14 11 -18 6 -4 -5 -2 -11 5 -13 22 -8 12 -21 -22 -27 -19 -4 -91
-8 -161 -11 -70 -2 -130 -7 -133 -10 -3 -3 7 -5 21 -5 39 0 33 -20 -5 -21 -18
-1 -40 -3 -48 -4 -8 -1 -26 -3 -40 -4 -21 -1 -26 -7 -28 -32 -3 -42 -11 -53
-27 -39 -9 8 -14 5 -19 -12 -5 -14 -9 -18 -13 -10 -8 20 -23 14 -24 -10 0 -13
-3 -17 -6 -10 -6 15 -30 16 -35 1 -2 -7 -47 -14 -113 -19 -61 -4 -99 -8 -86
-8 23 -2 23 -3 7 -27 -9 -14 -13 -25 -9 -25 5 0 -3 -6 -17 -13 -14 -7 -25 -21
-25 -32 0 -11 -7 -20 -15 -20 -8 0 -16 -10 -18 -22 -2 -15 -10 -23 -24 -23
-14 0 -18 5 -14 15 7 19 -8 20 -26 1 -10 -10 -39 -12 -118 -9 -58 3 -107 7
-109 9 -2 2 32 4 77 4 45 0 82 3 82 8 0 4 -100 8 -223 8 -141 1 -215 -1 -202
-7 17 -8 16 -8 -5 -4 -48 12 -84 9 -75 -4 3 -5 1 -12 -5 -16 -5 -3 -10 1 -10
9 0 11 -10 16 -31 16 -16 0 -28 -4 -24 -9 9 -16 -10 -21 -92 -26 -99 -6 -143
-14 -143 -24 0 -9 -338 -21 -625 -22 -121 0 -185 -5 -194 -12 -12 -9 -13 -9
-7 1 4 6 2 12 -3 12 -6 0 -11 -9 -11 -20 0 -20 -7 -20 -450 -20 -450 0 -455 0
-452 31 1 3 -6 6 -13 6 -12 0 -12 -3 -3 -16 7 -9 1 -7 -12 5 -21 17 -41 21
-130 23 -107 3 -124 6 -115 21 3 4 -18 7 -45 7 -27 -1 -50 -5 -50 -9 0 -4 -10
-3 -22 2 -13 5 -45 12 -73 15 -43 6 -47 9 -32 20 15 11 13 13 -20 19 -21 3
-101 6 -178 7 -157 2 -332 14 -237 17 31 1 52 7 52 13 0 8 -13 10 -36 6 -20
-4 -58 -2 -83 3 -25 6 -71 11 -101 12 -40 2 -55 7 -55 18 0 17 -34 28 -92 29
-29 1 -43 5 -43 15 0 10 -24 15 -90 20 -77 6 -90 10 -88 24 2 13 -7 18 -42 22
-37 4 -46 9 -48 27 -2 14 -10 22 -20 20 -31 -3 -112 14 -107 23 6 9 -16 17
-65 22 -14 2 -25 9 -25 17 0 10 -14 15 -45 18 -111 7 -128 11 -149 32 -15 15
-33 21 -65 21 -36 0 -46 4 -51 20 -3 11 -12 21 -18 22 -7 0 -16 2 -22 3 -5 2
-20 3 -32 4 -13 0 -23 7 -23 15 0 9 -19 16 -57 22 -32 4 -62 7 -66 5 -5 -1
-11 7 -14 18 -5 20 -40 31 -99 31 -27 0 -34 4 -34 20 0 17 -7 20 -45 20 -34 0
-47 5 -55 20 -8 14 -21 20 -47 20 -22 0 -42 7 -52 18 -9 11 -40 23 -71 28 -44
7 -54 13 -52 27 2 12 -4 17 -23 17 -14 0 -24 3 -24 8 4 26 -1 34 -16 22 -8 -7
-15 -8 -15 -3 0 5 -11 15 -24 23 -14 7 -22 18 -19 26 5 14 -6 18 -39 15 -10
-1 -18 7 -20 21 -2 15 -9 22 -20 20 -24 -4 -58 15 -58 33 0 9 -14 15 -42 17
-30 2 -43 8 -43 18 0 8 -10 16 -22 18 -13 1 -33 3 -45 5 -15 1 -24 10 -26 24
-3 19 -11 22 -50 25 -29 2 -46 7 -45 15 3 12 -20 18 -108 28 -45 5 -58 10 -62
26 -4 15 -14 19 -52 19 -38 0 -45 3 -43 17 2 14 -6 18 -39 20 -23 2 -44 -1
-48 -7 -9 -15 -25 -12 -25 6 0 8 -4 13 -8 10 -10 -6 -9 -42 1 -52 4 -4 7 -2 7
4 0 22 18 12 22 -13 3 -13 2 -24 -1 -23 -3 0 -15 -1 -26 -2 -17 -2 -17 -3 4
-9 23 -6 40 -41 20 -41 -5 0 -9 7 -9 15 0 8 -8 15 -17 14 -11 0 -13 -3 -5 -6
6 -2 12 -9 12 -14 0 -6 -5 -7 -10 -4 -6 4 -10 -6 -10 -23 0 -19 5 -29 15 -29
9 0 14 6 11 13 -3 8 -1 16 5 19 5 4 9 3 8 -2 -6 -23 15 -63 32 -63 14 0 19 -7
19 -25 0 -18 5 -25 20 -25 15 0 20 -7 20 -25 0 -20 5 -25 25 -25 18 0 25 -5
25 -20 0 -17 7 -20 45 -20 42 0 45 -2 45 -26 0 -21 4 -25 20 -21 16 4 20 0 20
-19 0 -19 5 -24 24 -24 13 0 27 -8 30 -17 6 -14 9 -15 15 -4 6 9 10 7 14 -8 3
-13 13 -21 26 -21 14 0 21 -6 21 -20 0 -15 7 -20 25 -20 20 0 25 -5 25 -25 0
-23 4 -25 45 -25 38 0 45 -3 45 -19 0 -11 9 -23 20 -26 11 -3 20 -13 20 -21 0
-8 10 -14 25 -14 20 0 25 -5 25 -25 0 -23 4 -25 45 -25 38 0 45 -3 45 -19 0
-16 9 -21 45 -27 34 -5 45 -11 45 -25 0 -14 9 -19 42 -21 35 -2 42 -6 40 -20
-2 -15 5 -18 48 -18 47 0 50 -2 50 -25 0 -23 4 -25 44 -25 36 0 44 -3 42 -18
-1 -13 10 -19 47 -26 28 -6 47 -15 47 -23 0 -7 9 -14 20 -14 11 -1 30 -2 43
-3 16 -1 21 -7 20 -24 -3 -20 2 -22 42 -22 41 0 45 -2 45 -25 0 -24 2 -25 70
-25 63 0 70 -2 70 -20 0 -12 7 -21 18 -21 9 -1 32 -3 50 -5 40 -3 52 -12 32
-24 -11 -7 -7 -10 15 -10 66 -1 105 -12 105 -31 0 -15 10 -19 68 -21 63 -3 67
-4 64 -25 -3 -22 0 -23 62 -23 52 0 66 -3 66 -15 0 -8 7 -16 15 -16 8 -1 20
-3 25 -4 6 -1 42 -3 80 -4 63 -1 70 -3 70 -21 0 -18 7 -20 79 -20 106 0 141
-8 141 -31 0 -17 9 -19 94 -19 l93 0 -4 -24 c-4 -19 -1 -25 13 -24 11 0 60 -1
111 -2 68 -2 90 -5 87 -15 -6 -15 120 -25 318 -25 127 0 139 -2 136 -18 -3
-15 11 -17 137 -22 138 -5 140 -5 137 -28 l-3 -22 825 0 c819 0 826 0 826 20
0 17 7 20 53 22 28 0 57 2 62 3 6 2 54 3 109 4 93 1 98 2 93 21 -5 19 0 20 87
20 135 0 216 10 216 26 0 11 25 14 115 14 l115 0 0 25 c0 25 1 25 85 25 78 0
85 2 85 20 0 11 3 21 8 21 4 1 54 4 112 8 84 5 105 9 105 21 0 12 19 16 84 21
62 5 86 11 93 23 7 12 24 16 73 16 63 0 65 1 65 25 0 24 2 25 65 25 57 0 65 2
65 19 0 19 39 31 102 31 15 0 31 7 36 16 5 9 29 17 65 21 47 5 57 9 57 24 0
16 8 19 49 19 44 0 50 3 53 23 3 20 9 22 66 25 58 3 62 4 62 27 0 23 4 25 45
25 31 0 45 4 45 14 0 14 49 26 108 26 25 0 32 4 32 20 0 17 7 20 45 20 31 0
45 4 44 13 -4 31 2 37 41 37 33 0 40 3 40 20 0 17 7 20 49 20 43 0 49 2 44 19
-4 15 3 20 41 25 36 6 46 11 46 27 0 16 7 19 45 19 41 0 45 2 45 25 0 23 4 25
43 26 23 1 34 3 25 6 -39 10 -5 33 50 33 15 0 22 6 22 19 0 15 10 21 40 26 30
5 40 11 40 26 0 14 7 19 25 19 18 0 25 5 25 20 0 17 7 20 39 20 33 0 40 4 43
23 2 16 11 23 31 25 19 2 27 9 27 23 0 18 4 20 65 23 13 1 21 9 23 24 2 14 10
22 23 22 12 0 19 7 19 20 0 17 7 20 45 20 41 0 45 2 45 25 0 18 5 25 20 25 13
0 20 7 20 19 0 15 10 20 45 25 25 4 45 12 45 18 0 5 -7 7 -16 4 -8 -3 -12 -2
-9 4 3 6 22 10 41 10 30 0 34 3 34 25 0 18 5 25 20 25 15 0 20 7 20 25 0 20 5
25 25 25 18 0 25 5 25 20 0 13 7 20 20 20 13 0 20 7 20 20 0 13 7 20 20 20 15
0 20 7 20 25 0 20 5 25 25 25 18 0 25 5 25 19 0 12 9 21 25 25 14 4 25 13 25
21 0 8 9 15 20 15 15 0 20 7 20 25 0 18 5 25 20 25 15 0 20 7 20 25 0 20 5 25
25 25 20 0 25 5 25 25 0 18 5 25 19 25 15 0 21 10 26 40 4 25 12 40 21 40 8 0
14 10 14 25 0 20 5 25 25 25 21 0 25 5 25 28 0 15 5 34 11 42 8 12 9 10 4 -7
-5 -17 -2 -23 10 -23 11 0 15 5 12 15 -4 8 -2 17 3 20 6 4 10 17 10 31 0 17 6
24 19 24 15 0 20 10 25 45 5 29 12 45 22 45 8 0 14 10 14 25 0 20 5 25 25 25
14 0 25 4 25 9 0 5 -9 7 -20 4 -15 -4 -20 -1 -19 13 0 11 3 13 6 7 6 -17 33 9
33 31 0 10 9 16 25 16 20 0 25 5 25 25 0 16 6 25 15 25 8 0 15 8 15 18 1 9 7
31 16 47 11 22 13 24 10 8 -2 -13 0 -23 4 -23 5 0 11 18 15 40 6 34 11 40 31
40 19 0 24 5 24 25 0 19 5 25 21 25 16 0 20 5 16 20 -3 11 -2 20 3 20 4 0 7
10 6 23 -1 16 4 21 17 19 13 -2 17 5 18 30 1 18 1 39 0 46 -1 8 7 16 18 19 20
5 35 35 31 64 -4 25 1 64 7 52 2 -7 9 -13 15 -13 6 0 3 9 -7 20 -10 11 -15 28
-12 40 4 15 0 20 -14 20 -12 0 -19 -7 -19 -20z m-9753 -1356 c-3 -3 -12 -4
-19 -1 -8 3 -5 6 6 6 11 1 17 -2 13 -5z m300 -90 c-3 -3 -12 -4 -19 -1 -8 3
-5 6 6 6 11 1 17 -2 13 -5z m6583 -668 c0 -3 -4 -8 -10 -11 -5 -3 -10 -1 -10
4 0 6 5 11 10 11 6 0 10 -2 10 -4z m47 -2 c-3 -3 -12 -4 -19 -1 -8 3 -5 6 6 6
11 1 17 -2 13 -5z m78 -4 c3 -6 -1 -7 -9 -4 -18 7 -21 14 -7 14 6 0 13 -4 16
-10z"/>
<path d="M12800 4335 c0 -8 2 -15 4 -15 2 0 6 7 10 15 3 8 1 15 -4 15 -6 0
-10 -7 -10 -15z"/>
<path d="M10600 4270 c0 -5 5 -10 10 -10 6 0 10 5 10 10 0 6 -4 10 -10 10 -5
0 -10 -4 -10 -10z"/>
<path d="M10634 4272 c3 -5 0 -12 -6 -15 -7 -2 -10 -7 -7 -11 3 -4 12 0 18 8
9 11 9 16 0 22 -7 4 -9 3 -5 -4z"/>
<path d="M10567 4243 c-25 -4 -28 -8 -23 -29 6 -23 4 -24 -38 -24 -39 0 -45
-3 -48 -22 -2 -17 -9 -22 -25 -20 -19 3 -23 -2 -23 -22 0 -24 -8 -30 -37 -27
-6 1 -13 -9 -15 -21 -3 -20 -8 -23 -39 -20 -33 2 -37 0 -42 -27 -5 -24 -10
-28 -27 -24 -16 4 -20 1 -20 -18 0 -23 -3 -24 -46 -20 -44 3 -47 2 -41 -18 5
-19 1 -21 -44 -21 -46 0 -49 -2 -49 -25 0 -26 -12 -30 -69 -25 -20 2 -23 -2
-19 -24 5 -25 3 -26 -38 -26 -37 0 -43 -3 -46 -22 -2 -17 -9 -22 -25 -20 -18
3 -23 -2 -23 -17 0 -16 -6 -21 -25 -21 -16 0 -25 -6 -25 -15 0 -18 26 -20 33
-2 3 7 6 5 6 -5 1 -11 -6 -18 -18 -18 -27 0 -34 -26 -7 -27 11 0 15 1 8 4 -10
4 -7 9 10 17 12 7 22 18 20 26 -2 8 4 11 18 7 11 -3 20 -1 20 5 0 6 9 8 21 5
22 -6 109 20 109 33 0 4 17 11 37 15 24 4 32 9 24 15 -18 10 -3 33 16 26 23
-9 65 5 59 20 -5 14 12 21 57 23 40 1 44 6 40 43 -3 23 -2 29 5 19 12 -17 33
-5 25 14 -4 11 3 15 23 16 29 0 79 17 57 18 -7 1 -10 8 -7 16 4 10 11 12 22 6
18 -10 42 9 42 33 0 9 8 16 18 16 11 0 23 10 28 21 9 20 11 20 26 6 15 -15 17
-14 25 21 6 28 14 38 32 40 15 2 21 8 17 18 -3 8 -1 15 4 15 6 1 16 2 23 3 6
1 12 11 12 24 0 13 7 27 15 32 8 5 11 9 5 8 -5 0 -23 -3 -38 -5z m-650 -459
c-3 -3 -12 -4 -19 -1 -8 3 -5 6 6 6 11 1 17 -2 13 -5z"/>
<path d="M10368 3983 c7 -3 16 -2 19 1 4 3 -2 6 -13 5 -11 0 -14 -3 -6 -6z"/>
<path d="M4340 3926 c0 -2 7 -7 16 -10 8 -3 12 -2 9 4 -6 10 -25 14 -25 6z"/>
<path d="M4387 3910 c4 -14 -2 -23 -21 -31 -14 -7 -26 -17 -27 -23 -4 -43 -2
-52 15 -62 11 -6 21 -20 23 -30 7 -33 10 -58 12 -81 1 -18 7 -23 30 -23 44 0
91 -11 86 -21 -7 -10 26 -28 42 -22 7 2 13 -8 15 -24 2 -20 8 -27 21 -25 12 2
17 -4 17 -23 0 -17 5 -25 13 -22 18 6 47 -11 47 -29 0 -8 4 -13 9 -10 10 6 61
-16 61 -26 0 -4 -7 -4 -17 -1 -11 4 -14 3 -9 -5 4 -7 23 -12 42 -12 27 0 34
-4 34 -19 0 -15 10 -20 46 -26 34 -5 48 -12 51 -26 3 -10 9 -16 14 -14 4 3 16
1 26 -4 10 -5 26 -12 36 -15 10 -3 15 -10 12 -16 -3 -5 1 -10 9 -10 9 0 16 6
16 13 0 6 5 4 11 -5 6 -11 22 -18 39 -18 16 0 32 -4 35 -10 3 -5 -1 -10 -10
-10 -9 0 -13 -5 -10 -10 4 -6 11 -8 16 -5 5 4 14 3 21 -1 6 -4 28 -9 47 -10
55 -4 72 -9 81 -24 7 -11 47 -15 178 -18 168 -4 170 -5 181 -28 11 -24 11 -24
186 -24 117 0 174 -3 170 -10 -4 -6 -10 -8 -15 -5 -5 3 -11 1 -15 -5 -4 -6 8
-10 30 -10 29 0 36 3 31 15 -3 8 -1 15 3 15 5 0 11 -4 13 -9 2 -6 16 -12 31
-15 24 -4 27 -3 17 10 -11 12 -2 14 59 14 54 0 71 -3 71 -14 0 -23 24 -26 188
-27 86 0 151 -3 145 -6 -27 -10 -13 -33 19 -33 22 0 39 -8 53 -25 l20 -25 410
0 c447 1 495 3 510 24 12 16 153 33 229 28 63 -5 116 5 116 22 0 10 31 13 143
13 167 0 274 10 302 28 11 7 58 16 103 20 74 6 82 9 77 25 -3 10 -1 21 5 25 6
3 8 11 5 16 -4 5 5 9 19 9 14 0 27 4 31 9 3 6 13 10 23 10 9 0 28 3 42 5 14 2
28 5 32 5 5 1 7 7 5 14 -4 22 53 20 72 -2 24 -28 80 -28 109 -1 12 11 32 20
46 20 18 0 25 6 28 23 3 19 8 21 36 19 37 -4 95 15 87 29 -6 9 34 17 100 22
30 2 39 7 37 19 -3 20 44 53 51 35 3 -8 12 -4 25 12 15 17 33 24 63 25 52 1
58 16 24 50 -18 18 -21 26 -11 26 8 0 22 -7 30 -16 12 -12 16 -12 16 -2 1 9 5
7 14 -4 15 -21 46 -24 46 -5 0 16 31 43 60 52 18 6 20 9 9 17 -10 7 -7 8 10 4
18 -4 21 -2 12 7 -9 9 -16 9 -31 -1 -11 -7 -34 -10 -51 -7 -25 5 -30 3 -26
-10 4 -9 1 -15 -8 -15 -9 0 -12 6 -9 15 4 10 0 15 -15 15 -15 0 -21 -5 -19
-17 2 -10 7 -21 12 -24 4 -4 -28 -5 -72 -2 l-79 5 2 -26 3 -26 -95 0 c-92 0
-94 -1 -91 -22 3 -24 6 -23 -84 -26 -33 -1 -48 -6 -48 -16 0 -13 -48 -26 -102
-26 -21 0 -28 -5 -28 -20 0 -22 -5 -23 -117 -20 -57 1 -63 -1 -63 -19 0 -28
-7 -30 -99 -32 -44 -1 -81 -5 -81 -10 0 -5 6 -9 13 -9 7 0 6 -4 -4 -10 -9 -5
-114 -10 -233 -10 -206 -1 -216 -2 -216 -21 0 -16 -7 -19 -52 -19 -29 0 -159
-1 -288 -2 -129 -1 -418 -1 -642 0 -401 2 -406 2 -401 22 5 19 0 20 -158 21
-90 1 -172 0 -182 -1 -11 -1 -21 7 -24 19 -5 19 -14 21 -117 23 -109 3 -111 3
-108 26 3 22 2 22 -111 22 -110 0 -115 1 -110 20 3 13 0 20 -8 20 -82 3 -175
15 -181 24 -6 8 -8 7 -8 -1 0 -7 -7 -13 -15 -13 -8 0 -15 7 -15 15 0 9 -10 15
-27 16 -78 2 -114 14 -107 34 5 13 -5 15 -66 15 -72 0 -72 0 -68 25 5 25 4 25
-63 25 -61 0 -69 2 -69 19 0 18 -7 20 -117 33 -7 1 -13 7 -13 15 0 7 -12 14
-27 14 -16 1 -37 2 -48 3 -13 1 -21 9 -23 24 -3 18 -10 22 -43 22 -35 0 -39 3
-39 25 0 23 -4 25 -45 25 -38 0 -45 3 -45 20 0 17 -7 20 -45 20 -38 0 -45 3
-45 20 0 17 -7 20 -45 20 -33 0 -45 4 -45 15 0 8 -6 15 -12 15 -9 0 -8 4 2 10
13 8 12 10 -2 10 -10 0 -18 -4 -18 -10 0 -5 -5 -10 -11 -10 -5 0 -7 5 -4 10 3
6 -3 10 -15 10 -14 0 -19 -4 -14 -12 6 -9 3 -9 -9 0 -9 8 -21 11 -27 7 -5 -3
-10 1 -10 11 0 18 -27 43 -47 44 -6 0 -9 -8 -6 -20z m4913 -379 c0 -4 -6 -8
-13 -8 -8 0 -14 6 -14 13 0 7 6 10 14 7 7 -3 13 -8 13 -12z"/>
<path d="M4455 3919 c-4 -6 -5 -12 -2 -15 2 -3 7 2 10 11 7 17 1 20 -8 4z"/>
<path d="M9656 3685 c4 -8 8 -15 10 -15 2 0 4 7 4 15 0 8 -4 15 -10 15 -5 0
-7 -7 -4 -15z"/>
<path d="M9716 3684 c-8 -22 -8 -24 8 -24 9 0 14 9 13 20 -2 24 -13 26 -21 4z"/>
<path d="M9520 3627 c0 -11 3 -17 7 -14 3 4 14 0 24 -9 16 -15 17 -14 12 7 -5
19 -3 21 20 17 15 -3 28 0 30 6 3 8 -12 12 -44 13 -43 1 -49 -2 -49 -20z"/>
<path d="M9642 3620 c0 -14 2 -19 5 -12 2 6 2 18 0 25 -3 6 -5 1 -5 -13z"/>
<path d="M9670 3630 c-9 -6 -10 -10 -3 -10 6 0 15 5 18 10 8 12 4 12 -15 0z"/>
<path d="M9621 3614 c0 -11 3 -14 6 -6 3 7 2 16 -1 19 -3 4 -6 -2 -5 -13z"/>
<path d="M8373 3143 c9 -2 23 -2 30 0 6 3 -1 5 -18 5 -16 0 -22 -2 -12 -5z"/>
<path d="M8048 3093 c6 -2 18 -2 25 0 6 3 1 5 -13 5 -14 0 -19 -2 -12 -5z"/>
<path d="M6300 3055 c0 -8 5 -15 10 -15 6 0 10 7 10 15 0 8 -4 15 -10 15 -5 0
-10 -7 -10 -15z"/>
<path d="M2870 2921 c0 -10 19 -25 25 -20 1 2 -3 10 -11 17 -8 7 -14 8 -14 3z"/>
<path d="M3456 2433 c-11 -11 -7 -20 9 -20 8 0 15 4 15 8 0 11 -16 20 -24 12z"/>
<path d="M4948 2213 c7 -3 16 -2 19 1 4 3 -2 6 -13 5 -11 0 -14 -3 -6 -6z"/>
<path d="M9656 2181 c-3 -5 1 -11 9 -15 9 -3 15 0 15 9 0 16 -16 20 -24 6z"/>
<path d="M9265 1990 c3 -5 8 -10 11 -10 2 0 4 5 4 10 0 6 -5 10 -11 10 -5 0
-7 -4 -4 -10z"/>
<path d="M8425 1530 c-3 -5 -1 -10 4 -10 6 0 11 5 11 10 0 6 -2 10 -4 10 -3 0
-8 -4 -11 -10z"/>
<path d="M8112 1485 c-11 -12 -10 -15 3 -15 8 0 15 7 15 15 0 18 -2 18 -18 0z"/>
</g>
</svg>
